<?xml version="1.0" encoding="utf-8"?>
<!-- Generator: Adobe Illustrator 19.1.0, SVG Export Plug-In . SVG Version: 6.00 Build 0)  -->
<svg version="1.1" id="Layer_1" xmlns="http://www.w3.org/2000/svg" xmlns:xlink="http://www.w3.org/1999/xlink" x="0px" y="0px"
	 viewBox="0 0 1000 824.6" style="enable-background:new 0 0 1000 824.6;" xml:space="preserve">
<style type="text/css">
	.st0{fill:#7F7F7F;}
	.st1{font-family:'Calibri-Bold';}
	.st2{font-size:24.8551px;}
	.st3{clip-path:url(#SVGID_2_);}
	.st4{clip-path:url(#SVGID_4_);fill:#EF4A39;}
	.st5{clip-path:url(#SVGID_4_);fill:#59595C;}
	.st6{clip-path:url(#SVGID_6_);}
	.st7{clip-path:url(#SVGID_8_);fill:none;stroke:#FF0000;stroke-width:1.137;stroke-linejoin:round;stroke-miterlimit:10;}
	.st8{clip-path:url(#SVGID_8_);fill:#E8E8E8;}
	.st9{clip-path:url(#SVGID_8_);fill:#999999;}
	.st10{clip-path:url(#SVGID_8_);fill:#80B6E0;}
	.st11{clip-path:url(#SVGID_8_);fill:#F3F3F3;}
	.st12{clip-path:url(#SVGID_8_);fill:#BFDAEF;}
	.st13{clip-path:url(#SVGID_8_);fill:#666666;}
	.st14{clip-path:url(#SVGID_8_);fill:none;stroke:#666666;stroke-width:0.5615;stroke-linejoin:round;stroke-miterlimit:10;}
	.st15{clip-path:url(#SVGID_8_);fill:none;stroke:#666666;stroke-width:1.137;stroke-linejoin:round;stroke-miterlimit:10;}
	.st16{clip-path:url(#SVGID_8_);fill:#009801;}
	.st17{clip-path:url(#SVGID_8_);fill:none;stroke:#009900;stroke-width:0.5615;stroke-linejoin:round;stroke-miterlimit:10;}
	.st18{clip-path:url(#SVGID_8_);fill:none;stroke:#009900;stroke-width:1.137;stroke-linejoin:round;stroke-miterlimit:10;}
	.st19{clip-path:url(#SVGID_8_);fill:#FAA634;}
	.st20{clip-path:url(#SVGID_8_);fill:none;stroke:#FAA634;stroke-width:1.137;stroke-linejoin:round;stroke-miterlimit:10;}
	.st21{clip-path:url(#SVGID_8_);fill:none;stroke:#FAA634;stroke-width:0.5615;stroke-linejoin:round;stroke-miterlimit:10;}
	.st22{clip-path:url(#SVGID_8_);fill:#424242;}
	.st23{clip-path:url(#SVGID_8_);fill:none;stroke:#424242;stroke-width:1.137;stroke-linejoin:round;stroke-miterlimit:10;}
	.st24{clip-path:url(#SVGID_8_);fill:#0066CC;}
	.st25{clip-path:url(#SVGID_8_);fill:none;stroke:#0066CC;stroke-width:0.5615;stroke-linejoin:round;stroke-miterlimit:10;}
	.st26{clip-path:url(#SVGID_8_);fill:none;stroke:#0066CC;stroke-width:1.137;stroke-linejoin:round;stroke-miterlimit:10;}
	.st27{clip-path:url(#SVGID_8_);fill:#ECECEC;}
	.st28{clip-path:url(#SVGID_8_);fill:#717171;}
	.st29{clip-path:url(#SVGID_8_);fill:#CDCDCF;}
	.st30{clip-path:url(#SVGID_8_);fill:#B4B5B7;}
	.st31{clip-path:url(#SVGID_8_);fill:none;stroke:#555655;stroke-width:0.5615;stroke-linejoin:round;stroke-miterlimit:10;}
	.st32{clip-path:url(#SVGID_8_);fill:none;stroke:#020303;stroke-width:0.8563;stroke-linejoin:round;stroke-miterlimit:10;}
	.st33{clip-path:url(#SVGID_8_);fill:#707070;}
	.st34{clip-path:url(#SVGID_8_);fill:#CCCDCF;}
	.st35{clip-path:url(#SVGID_8_);fill:#B4B4B6;}
	.st36{clip-path:url(#SVGID_8_);fill:none;stroke:#555555;stroke-width:0.5615;stroke-linejoin:round;stroke-miterlimit:10;}
	.st37{clip-path:url(#SVGID_8_);fill:none;stroke:#000000;stroke-width:0.7018;stroke-linejoin:round;stroke-miterlimit:10;}
	.st38{clip-path:url(#SVGID_8_);fill:none;stroke:#000000;stroke-width:0.8563;stroke-linejoin:round;stroke-miterlimit:10;}
	.st39{clip-path:url(#SVGID_8_);fill:none;stroke:#707070;stroke-width:0.5615;stroke-linejoin:round;stroke-miterlimit:10;}
	.st40{clip-path:url(#SVGID_8_);fill:#FFFFFF;}
	.st41{clip-path:url(#SVGID_8_);fill:none;stroke:#A7A7A7;stroke-width:0.5615;stroke-linejoin:round;stroke-miterlimit:10;}
	.st42{clip-path:url(#SVGID_8_);fill:none;stroke:#505050;stroke-width:0.8563;stroke-linejoin:round;stroke-miterlimit:10;}
	.st43{clip-path:url(#SVGID_8_);fill:#CCCCCC;}
	.st44{clip-path:url(#SVGID_8_);fill:#ACACAC;}
	.st45{clip-path:url(#SVGID_8_);fill:#555555;}
	.st46{clip-path:url(#SVGID_8_);fill:#EAEAEA;}
	.st47{clip-path:url(#SVGID_8_);fill:#B6D1E6;}
	.st48{clip-path:url(#SVGID_8_);fill:#F0F0F0;}
	.st49{clip-path:url(#SVGID_8_);fill:#979797;}
	.st50{clip-path:url(#SVGID_8_);fill:#DCDCDC;}
	.st51{clip-path:url(#SVGID_8_);fill:#A0A0A0;}
	.st52{clip-path:url(#SVGID_8_);fill:#CECECF;}
	.st53{clip-path:url(#SVGID_8_);fill:#C0C0C1;}
	.st54{clip-path:url(#SVGID_8_);fill:#848485;}
	.st55{clip-path:url(#SVGID_8_);fill:#A6C1D8;}
	.st56{clip-path:url(#SVGID_8_);fill:#E0E0E1;}
	.st57{clip-path:url(#SVGID_8_);fill:#C5D4DF;}
	.st58{clip-path:url(#SVGID_8_);fill:#DADBDC;}
	.st59{clip-path:url(#SVGID_8_);fill:#CCCCCD;}
	.st60{clip-path:url(#SVGID_8_);fill:#909192;}
	.st61{clip-path:url(#SVGID_8_);fill:#B6B6B7;}
	.st62{fill:#0D0D0D;}
	.st63{font-family:'Verdana-Bold';}
	.st64{font-size:21.4268px;}
	.st65{fill:#EF4A39;}
</style>
<g>
	<text transform="matrix(1 0 0 1 613.5605 38.0451)" class="st0 st1 st2">High Availability WordPress on AWS</text>
	<g>
		<defs>
			<rect id="SVGID_1_" x="10" y="10" width="149.5" height="44.2"/>
		</defs>
		<clipPath id="SVGID_2_">
			<use xlink:href="#SVGID_1_"  style="overflow:visible;"/>
		</clipPath>
		<g class="st3">
			<defs>
				<rect id="SVGID_3_" x="10" y="10" width="149.5" height="44.1"/>
			</defs>
			<clipPath id="SVGID_4_">
				<use xlink:href="#SVGID_3_"  style="overflow:visible;"/>
			</clipPath>
			<path class="st4" d="M15.8,15.8h32.6v16.3H32.1v16.3H15.8V15.8z M10,10v44.3h44.2V10H10z"/>
			<polygon class="st5" points="128.2,12.7 128.2,12.7 127.8,12.7 127.4,12.7 127.1,12.8 126.7,13 126.4,13.1 126.1,13.3 
				125.8,13.5 125.5,13.7 125.2,14 125,14.3 124.8,14.6 124.7,15 124.6,15.3 124.5,15.7 124.4,16.1 124.4,16.4 124.4,16.8 
				124.5,17.2 124.6,17.6 124.7,18 124.8,18.3 125,18.6 125.2,18.9 125.5,19.2 125.8,19.4 126.1,19.6 126.4,19.8 126.7,20 
				127.1,20.1 127.4,20.2 127.8,20.3 128.2,20.3 128.6,20.3 129,20.2 129.4,20.1 129.7,20 130,19.8 130.3,19.6 130.6,19.4 
				130.9,19.2 131.2,18.9 131.4,18.6 131.6,18.3 131.7,18 131.8,17.6 131.9,17.2 132,16.8 132,16.4 132,16.1 131.9,15.7 131.8,15.3 
				131.7,15 131.6,14.6 131.4,14.3 131.2,14 130.9,13.7 130.6,13.5 130.3,13.3 130,13.1 129.7,13 129.4,12.8 129,12.7 128.6,12.7 
							"/>
			<rect x="125.1" y="22.7" class="st5" width="6.2" height="24.9"/>
			<polygon class="st5" points="67.8,22.7 67.8,47.6 74.3,47.6 74.3,32.4 74.8,31.5 75.4,30.9 76,30.3 76.8,29.7 77.2,29.5 
				77.5,29.3 77.9,29.1 78.4,29 78.8,28.9 79.2,28.8 79.7,28.8 80.1,28.8 80.7,28.8 80.7,22.2 80.5,22.1 80.1,22.1 79.6,22.1 
				79.2,22.1 78.7,22.1 78.3,22.2 77.8,22.4 77.4,22.5 77,22.7 76.5,23 76.1,23.3 75.5,23.7 75,24.3 74.5,24.9 74,25.7 74,22.7 			
				"/>
			<path class="st5" d="M93.9,42.2L93.9,42.2h-0.7L92.5,42l-0.6-0.1l-0.7-0.2l-0.6-0.3L90,41l-0.5-0.4L89,40.1l-0.4-0.5l-0.4-0.5
				l-0.3-0.5l-0.3-0.6l-0.2-0.6l-0.2-0.7L87,35.9l0-0.7l0-0.7l0.1-0.7l0.2-0.7l0.2-0.6l0.3-0.6l0.3-0.6l0.4-0.5l0.4-0.5l0.5-0.5
				l0.5-0.4l0.6-0.3l0.6-0.3l0.7-0.2l0.6-0.1l0.7-0.1l0.7-0.1l0.7,0.1l0.7,0.1l0.6,0.1l0.7,0.2l0.6,0.3l0.6,0.3l0.5,0.4l0.5,0.5
				l0.4,0.5l0.4,0.5l0.4,0.6l0.3,0.6l0.2,0.6l0.2,0.7l0.1,0.7l0,0.7l0,0.7l-0.1,0.7l-0.2,0.7l-0.2,0.6l-0.3,0.6l-0.4,0.5l-0.4,0.5
				l-0.4,0.5l-0.5,0.5L97.8,41l-0.6,0.3l-0.6,0.3L96,41.9L95.4,42l-0.7,0.1H93.9z M107.2,47.6V22.7H101v2.1l-0.7-0.7l-0.8-0.5
				l-0.8-0.4l-0.9-0.4L97,22.5l-1-0.2l-1-0.1h-1.1h-0.7l-0.6,0l-0.7,0.1l-0.6,0.1l-0.6,0.1L90,22.7l-0.6,0.2l-0.6,0.2l-0.6,0.2
				l-0.6,0.3l-0.5,0.3l-0.5,0.3l-0.5,0.4l-0.5,0.4l-0.5,0.4l-0.4,0.4l-0.4,0.4l-0.4,0.5l-0.4,0.5l-0.3,0.5l-0.3,0.5l-0.3,0.5
				l-0.2,0.6l-0.3,0.5l-0.2,0.6l-0.2,0.6l-0.2,0.6l-0.1,0.6L81,33.2l-0.1,0.6l0,0.7v0.7v0.6l0,0.7l0.1,0.6l0.1,0.7l0.1,0.6l0.2,0.6
				l0.2,0.6l0.2,0.6l0.3,0.6l0.2,0.5l0.3,0.5l0.3,0.5l0.3,0.5l0.4,0.5l0.4,0.5l0.4,0.4l0.4,0.4l0.5,0.4l0.5,0.4l0.5,0.4l0.5,0.3
				l0.5,0.3l0.6,0.3l0.6,0.2l0.6,0.2l0.6,0.2l0.6,0.2l0.6,0.1l0.6,0.1l0.7,0.1l0.6,0l0.7,0l1.1,0l1-0.2l1-0.2l0.9-0.3l0.9-0.3
				l0.8-0.5l0.8-0.5l0.7-0.6v2H107.2z"/>
			<polygon class="st5" points="116,28.7 121.9,28.7 121.9,22.8 116,22.8 116,15.9 110.1,15.9 110.1,41.3 110.1,42 110.2,42.8 
				110.3,43.4 110.4,44.1 110.6,44.6 110.8,45.1 111,45.6 111.2,46 111.5,46.4 111.9,46.7 112.2,47 112.6,47.2 113,47.5 113.4,47.7 
				113.8,47.8 114.7,48.1 115.7,48.2 116.6,48.3 117.5,48.3 118.3,48.3 119.2,48.2 120.1,48 121.9,47.5 121.9,42 120.5,42.3 
				119.7,42.4 118.9,42.5 118.1,42.5 117.4,42.4 117.1,42.4 116.9,42.3 116.6,42.1 116.4,41.9 116.2,41.6 116.1,41.3 116,40.9 
				116,40.4 116,34.3 			"/>
			<path class="st5" d="M153.5,35.2L153.5,35.2v0.7l-0.1,0.7l-0.2,0.7l-0.2,0.6l-0.3,0.6l-0.3,0.6l-0.4,0.5l-0.4,0.5l-0.5,0.4
				l-0.5,0.4l-0.6,0.3l-0.6,0.3l-0.6,0.2l-0.6,0.1l-0.7,0.1l-0.7,0l-0.7,0l-0.7-0.1l-0.6-0.1l-0.6-0.2l-0.6-0.3l-0.6-0.3l-0.5-0.4
				l-0.5-0.4l-0.4-0.5l-0.4-0.5l-0.3-0.6l-0.2-0.6l-0.2-0.6l-0.2-0.7l-0.1-0.7v-0.7v-0.7l0.1-0.7l0.2-0.7l0.2-0.6l0.2-0.6l0.3-0.5
				l0.4-0.5l0.4-0.5l0.5-0.4l0.5-0.4l0.6-0.3l0.6-0.3l0.6-0.2l0.6-0.2l0.7-0.1h0.7h0.7l0.7,0.1l0.6,0.2l0.6,0.2l0.6,0.3l0.6,0.3
				l0.5,0.4l0.5,0.4l0.4,0.5l0.4,0.5l0.3,0.5l0.3,0.6l0.2,0.6l0.2,0.7l0.1,0.7V35.2z M133.7,35.2L133.7,35.2v0.7l0,0.7l0.1,0.6
				l0.1,0.6l0.1,0.6l0.2,0.6l0.2,0.6l0.2,0.6l0.3,0.5l0.2,0.6l0.3,0.5l0.3,0.5l0.3,0.5l0.4,0.5L137,44l0.4,0.5l0.4,0.4l0.5,0.4
				l0.5,0.4l0.5,0.3l0.5,0.3l0.5,0.3L141,47l0.6,0.2l0.6,0.2l0.6,0.2l0.6,0.2l0.6,0.1l0.6,0.1l0.7,0.1l0.6,0h0.7h0.7l0.6,0l0.7-0.1
				l0.6-0.1l0.6-0.1l0.6-0.2l0.6-0.2l0.6-0.2l0.5-0.2l0.6-0.3l0.5-0.3l0.5-0.3l0.5-0.3l0.5-0.4l0.5-0.4l0.4-0.4l0.4-0.5l0.4-0.4
				l0.4-0.5l0.3-0.5l0.3-0.5l0.3-0.5l0.3-0.6l0.2-0.5l0.2-0.6l0.2-0.6l0.1-0.6l0.1-0.6l0.1-0.6l0-0.6l0-0.7l0.1-0.7l-0.1-0.6l0-0.7
				l0-0.6l-0.1-0.7l-0.1-0.6l-0.1-0.6l-0.2-0.6l-0.2-0.6l-0.2-0.6l-0.3-0.5l-0.3-0.6l-0.3-0.5l-0.3-0.5l-0.4-0.5l-0.4-0.5l-0.4-0.4
				l-0.4-0.4l-0.5-0.4l-0.5-0.4l-0.5-0.4l-0.5-0.3l-0.5-0.3l-0.6-0.3l-0.5-0.3l-0.6-0.2l-0.6-0.2l-0.6-0.1l-0.6-0.1l-0.6-0.2l-0.7,0
				l-0.6,0l-0.7,0l-0.7,0l-0.6,0l-0.7,0l-0.6,0.2l-0.6,0.1l-0.6,0.1l-0.6,0.2l-0.6,0.2l-0.6,0.3l-0.5,0.3l-0.5,0.3l-0.5,0.3
				l-0.5,0.4l-0.5,0.4l-0.5,0.4l-0.4,0.4l-0.4,0.4l-0.4,0.5l-0.4,0.5l-0.3,0.5l-0.3,0.5l-0.3,0.6l-0.2,0.5l-0.3,0.6l-0.2,0.6
				l-0.2,0.6l-0.2,0.6l-0.1,0.6l-0.1,0.7l-0.1,0.6l0,0.7V35.2z"/>
		</g>
	</g>
	<g>
		<defs>
			<rect id="SVGID_5_" x="50.2" y="153.3" width="899.9" height="660.7"/>
		</defs>
		<clipPath id="SVGID_6_">
			<use xlink:href="#SVGID_5_"  style="overflow:visible;"/>
		</clipPath>
		<g class="st6">
			<defs>
				<rect id="SVGID_7_" x="50.2" y="153.3" width="899.9" height="660.7"/>
			</defs>
			<clipPath id="SVGID_8_">
				<use xlink:href="#SVGID_7_"  style="overflow:visible;"/>
			</clipPath>
			<line class="st7" x1="703.7" y1="389.3" x2="716.4" y2="382"/>
			<polygon class="st8" points="523.2,606.3 562.1,604.5 949.7,380.5 718.4,246.8 308.6,482.3 			"/>
			<path class="st9" d="M561.8,604l-38.1,1.7L309.9,482.3l408.5-234.7l230,132.9L561.8,604z M950.5,380.5L950.5,380.5l-0.3-0.5
				l-231-133.4l-0.5-0.3l-0.8,0.3L307.9,482l-0.3,0.5l0.3,0.2l214.6,124h0.8l38.9-1.8h0.5l387.6-224.3L950.5,380.5z"/>
			<polygon class="st10" points="483.3,481.3 439.9,506.2 484.6,532 484.6,531.8 484.8,531.8 484.8,522.7 475,517.1 471.2,519.1 
				471,519.1 470.7,519.1 463.4,510.1 463.4,509.8 463.6,509.5 463.9,509.5 479.3,513.8 479.5,513.8 479.5,514.1 479.5,514.3 
				479.3,514.6 477,515.8 484.8,520.4 484.8,508 484.6,507.8 484.8,507.3 485.1,507 485.3,507 495.2,501.4 487.6,499.4 487.4,499.2 
				487.4,498.9 487.6,498.7 490.6,496.9 478,489.8 477.5,489.1 477.5,488.8 477.5,488.3 477.8,488.1 478.3,487.8 478.5,487.8 
				479,487.8 479,488.1 492.4,495.6 492.7,495.9 495.7,493.9 496,493.9 496.2,494.1 500,498.7 506.8,494.6 			"/>
			<path class="st11" d="M478.5,487.8L478.5,487.8h-0.3l-0.5,0.3l-0.3,0.3v0.5v0.3l0.5,0.8l12.6,7.1l-3,1.8l-0.3,0.3v0.2l0.3,0.3
				l7.6,2l4.8-2.8l-3.8-4.5l-0.3-0.3h-0.3l-3,2l-0.3-0.3l-13.4-7.6v-0.3H478.5z M463.6,509.5L463.6,509.5l-0.3,0.3v0.3l7.3,9.1h0.3
				h0.3l3.8-2l9.8,5.5v-2.3l-7.8-4.6l2.3-1.3l0.3-0.3v-0.2v-0.3h-0.3l-15.4-4.3H463.6z"/>
			<path class="st12" d="M478.5,487.8 M478.5,487.8L478.5,487.8h-0.3H478.5z M478.3,487.8L478.3,487.8l-0.5,0.3l-0.3,0.3v0.5v-0.5
				l0.3-0.3L478.3,487.8z M479,487.8L479,487.8v0.3V487.8z M479,488.1 M479,488.1L479,488.1l13.4,7.6l0.3,0.3l3-2h0.3l0.3,0.3
				l3.8,4.5l-3.8-4.5l-0.3-0.3h-0.3l-3,2l-0.3-0.3L479,488.1z M490.6,496.9l-3,1.8l-0.3,0.3l0.3-0.3L490.6,496.9z M463.6,509.5
				L463.6,509.5l-0.3,0.3v0.3v-0.3L463.6,509.5h0.3l15.4,4.3h0.3v0.3v-0.3h-0.3l-15.4-4.3H463.6z M477,515.8L477,515.8l7.8,4.6
				L477,515.8z M471.2,519.1 M471.2,519.1L471.2,519.1H471H471.2z M471,519.1"/>
			<path class="st13" d="M309.9,628.3l7.3-8.9l-15.4,4.3l3.8,2.3L309.9,628.3z M284.6,678.5l-7.3-8.8l-3.8,2l-4.6,2.5L284.6,678.5z
				 M480.8,570.9l7.3-8.9l-15.4,4.3l3.8,2.3L480.8,570.9z M378.8,609.6l7.3,8.8l3.8-2l4.3-2.5L378.8,609.6z M469.9,702.3l-4.5-2.8
				l-3.5-2l-7.3,9.1L469.9,702.3z"/>
			<path class="st14" d="M465.4,699.5l4.5,2.8l-15.4,4.3l7.3-9.1L465.4,699.5z M386.1,618.4l3.8-2l4.3-2.5l-15.4-4.3L386.1,618.4z
				 M476.5,568.6l-3.8-2.3l15.4-4.3l-7.3,8.9L476.5,568.6z M273.5,671.7l3.8-2l7.3,8.8l-15.7-4.3L273.5,671.7z M305.6,626l-3.8-2.3
				l15.4-4.3l-7.3,8.9L305.6,626z"/>
			<polyline class="st15" points="305.6,626 249.5,658.3 273.5,671.7 			"/>
			<polyline class="st15" points="476.5,568.6 451.5,583 396.5,583 			"/>
			<polyline class="st15" points="465.4,699.5 500,679.8 389.9,616.4 			"/>
			<polygon class="st16" points="474.5,426.9 467.2,436 482.6,431.7 478.8,429.4 			"/>
			<polygon class="st17" points="478.8,429.4 482.6,431.7 467.2,436 474.5,426.9 			"/>
			<polyline class="st18" points="478.8,429.4 714.3,294.3 646.4,255.2 			"/>
			<path class="st19" d="M385.6,514.6l7.3-8.8l-15.4,4l3.8,2.3L385.6,514.6z M329.8,557.8l-7.3-9.1l-4,2.3l-4.1,2.5L329.8,557.8z
				 M195.7,598.2l-3-2l-5-2.8l-7.3,8.8L195.7,598.2z"/>
			<polyline class="st20" points="381.3,512 360.4,524.2 360.4,545.2 			"/>
			<polyline class="st20" points="192.7,596.2 295,537.6 318.5,550.9 			"/>
			<path class="st21" d="M192.7,596.2l3,2l-15.4,4l7.3-8.8L192.7,596.2z M322.5,548.7l-4,2.3l-4.1,2.5l15.4,4.3L322.5,548.7z
				 M381.3,512l-3.8-2.3l15.4-4l-7.3,8.8L381.3,512z"/>
			<path class="st22" d="M707.5,389.5l7.3-8.8l-15.4,4.3l4,2.3L707.5,389.5z M671.4,405.7l15.4-4.3l-3.8-2l-4.3-2.5L671.4,405.7z
				 M482.3,437.3l-7.3,8.9l15.4-4.3l-4-2.3L482.3,437.3z M589.4,402.9l-7.3-9.1l-4,2.5l-4.3,2.3L589.4,402.9z M570.5,490.3l3.8,2.3
				l4.3,2.5l7.3-9.1L570.5,490.3z M551.5,505.7l15.4-4.3l-4.1-2.3l-4-2.5L551.5,505.7z"/>
			<line class="st23" x1="683" y1="399.4" x2="703.5" y2="387.3"/>
			<polyline class="st23" points="486.3,439.6 569.9,391.6 578,396.4 			"/>
			<line class="st23" x1="562.9" y1="499.2" x2="574.2" y2="492.6"/>
			<path class="st22" d="M562.9,499.2l-0.3,0.3l3,1.8l-12.6,3.5l6-7.3l3.5,2L562.9,499.2l0.2-0.5l-4-2.3l-0.3-0.3l-0.3,0.3l-7.3,9.1
				l-0.3,0.3l0.3,0.3l0.3,0.3h0.3l15.4-4.3l0.2-0.3v-0.3v-0.2l-0.2-0.3l-4.1-2.3L562.9,499.2z M574.2,492.6l0.2-0.5l-2.8-1.5
				l12.6-3.5l-6.1,7.3l-3.8-2.3L574.2,492.6l-0.3,0.5l4.3,2.3l0.3,0.2l0.3-0.2l7.3-8.9l0.3-0.2l-0.3-0.5h-0.3l-0.3-0.3l-15.4,4.3
				l-0.2,0.2v0.3v0.3l0.2,0.3l3.8,2.3L574.2,492.6z M578,396.4l0.3,0.3l3.5-2l6.1,7.3l-12.6-3.5l3-1.8L578,396.4l-0.2-0.5l-4.3,2.3
				v0.3l-0.3,0.2l0.3,0.3l0.3,0.3l15.4,4.3h0.3l0.3-0.3l0.3-0.3l-0.3-0.3l-7.3-9.1l-0.3-0.3l-0.3,0.3l-4,2.3L578,396.4z
				 M486.3,439.6l-0.3,0.5l3,1.8l-12.9,3.3l6.1-7.3l3.8,2.3L486.3,439.6l0.3-0.5l-4-2.3h-0.5h-0.3l-7.3,9.1v0.3v0.2l0.3,0.3h0.3
				l15.4-4.3h0.3l0.3-0.5v-0.3l-0.3-0.3l-4-2.3L486.3,439.6z M683,399.4l-0.3,0.3l2.8,1.8l-12.9,3.5l6.1-7.6l4,2.3L683,399.4
				l0.3-0.5l-4.3-2.5h-0.5l-0.3,0.3l-7.3,8.9v0.2v0.3l0.3,0.3h0.5l15.4-4.3h0.2v-0.3v-0.3l-0.2-0.3l-3.8-2.3L683,399.4z
				 M703.5,387.3l0.2-0.5l-3-1.8l12.6-3.3l-5.8,7.3l-3.8-2.3L703.5,387.3l-0.3,0.5l4,2.3h0.5l0.3-0.3l7.3-8.8v-0.3v-0.3l-0.3-0.3
				h-0.5l-15.4,4.3H699v0.3v0.2l0.3,0.3l4,2.5L703.5,387.3z"/>
			<path class="st24" d="M393.2,350.1l4.3,2.3l3.8,2.3l7.3-8.8L393.2,350.1z M316.4,367.3l-7.3,8.9l15.4-4.3l-4.5-2.5L316.4,367.3z
				 M216.4,449.4l7.3-8.8l-15.4,4l4,2.5L216.4,449.4z M322.2,677.3l-7.3,8.8l15.4-4.3l-4.3-2.5L322.2,677.3z M163.9,580.3l-7.3,8.8
				l15.4-4l-4.3-2.5L163.9,580.3z M430.8,710.8l-7.3-9.1l-3.5,2l-4.5,2.8L430.8,710.8z"/>
			<path class="st25" d="M167.7,582.5l4.3,2.5l-15.4,4l7.3-8.8L167.7,582.5z M326,679.3l4.3,2.5l-15.4,4.3l7.3-8.8L326,679.3z
				 M419.9,703.8l3.5-2l7.3,9.1l-15.4-4.3L419.9,703.8z M212.4,447.1l-4-2.5l15.4-4l-7.3,8.8L212.4,447.1z M320,369.3l4.5,2.5
				l-15.4,4.3l7.3-8.9L320,369.3z M397.5,352.4l-4.3-2.3l15.4-4.3l-7.3,8.8L397.5,352.4z"/>
			<polyline class="st26" points="397.5,352.4 335.1,388.5 434.3,445.4 			"/>
			<line class="st26" x1="320" y1="369.3" x2="363.4" y2="344.3"/>
			<polyline class="st26" points="212.4,447.1 93.7,515.3 188.7,570.4 351.8,664.6 419.9,703.8 			"/>
			<line class="st26" x1="326" y1="679.3" x2="351.8" y2="664.6"/>
			<line class="st26" x1="167.7" y1="582.5" x2="188.7" y2="570.4"/>
			<path class="st19" d="M145.8,586.3L145.8,586.3l0.3-0.8l0.3-0.5h0.5h0.5l30.3,17.7l0.5,0.3l0.5,0.8l0.3,0.7v0.8V628v0.8l-0.3,0.5
				h-0.5l-0.5-0.3l-30.3-17.4l-0.5-0.5l-0.5-0.5l-0.3-0.8l-0.3-0.7V586.3z M147.3,580.8L147.3,580.8l-1-0.2l-0.8-0.3l-0.8,0.3
				l-0.8,0.2l-0.5,0.8l-0.5,0.7l-0.3,1v1V607v1.3l0.3,1.3l0.5,1.5l0.5,1.3l0.8,1l0.8,1l0.8,0.7l1,0.8l30.3,17.4l1,0.5l0.8,0.3
				l0.8-0.3l0.7-0.3l0.5-0.7l0.5-0.8l0.3-1v-1v-23v-1.3l-0.3-1.3l-1-2.5l-0.7-1l-0.8-1l-0.8-1l-1-0.5L147.3,580.8z M146,622.9
				L146,622.9h0.5h0.5l12.4,7.3l0.5,0.5l0.5,0.5l0.3,0.8v0.5v0.5l-0.3,0.5h-0.5h-0.5l-12.4-7.3l-0.5-0.3l-0.5-0.8l-0.3-0.5V624v-0.5
				L146,622.9z M145.5,618.1L145.5,618.1l-1-0.3H144l-0.5,0.3l-0.3,0.5l-0.5,0.5v1.3v3.3v1.8l0.8,1.8l1,1.3l1,1l33.6,19.4l1.3,0.3
				h0.5l0.5-0.3l0.2-0.5l0.3-0.5l0.3-1.3v-3.3l-0.3-1.8l-0.5-1.5l-1-1.5l-1.3-1L145.5,618.1z M117.2,592.9L117.2,592.9l-2.3-1
				l-2-0.3h-1l-1,0.3l-0.8,0.3l-1,0.5l-0.8,0.8l-0.5,0.8l-1,2l-0.8,2.3v2.8v3l0.8,3.3l1,3l1.3,3l1.8,3l2,2.3l2,2l2.3,1.5l2,1
				l2.3,0.5h0.8l1-0.3l0.8-0.5l1-0.5l0.8-0.5l0.5-1l1-1.8l0.8-2.5l0.3-2.8l-0.3-3l-0.8-3l-1-3.3l-1.3-3l-1.8-2.8l-1.8-2.5l-2.3-2
				L117.2,592.9z M104.8,640.1l2.3,1.5V655l20,11.3V653l2.5,1.5v13.4l7.3,4.3V653l-0.3-2.8l-0.5-3l-1.3-3l-1.8-3.3l-1.8-2.8
				l-1.8-2.5l-1.8-1.8l-2-1.5l-17.4-10.1l-1.8-0.8l-2-0.3l-1.8,0.3l-1.8,0.8l-1.8,1.5l-1,1.8l-0.8,2l-0.3,2.8v18.9l7.6,4.3V640.1z
				 M101.3,671.7L101.3,671.7l0.8,0.5l0.5,0.5l0.5,0.8v0.5v0.5l-0.3,0.5l-0.8,0.7l-0.8,0.5l-1,0.5l-1.3,0.5h-1l-1,0.3l-2.3-0.5
				l-1.8-0.8l-1-0.5l8.1-4.5L101.3,671.7z M103.1,670.5L103.1,670.5l-3.8-2l-12.1,6.8l3,2L92,678l1.8,0.8l1.8,0.5l2,0.3H99l1.8-0.3
				l1.8-0.5l1.8-1l1.3-0.7l0.8-1l0.5-1v-1l-0.5-0.8l-0.5-1L103.1,670.5z M89.9,665.4L89.9,665.4l-3.5,3.5l-2.8-1.5L89.9,665.4z
				 M94,665.1l-3.5-2l-15.9,4.8l2.8,1.8l4-1.3l3.5,2l-2.3,2.3l3,1.8L94,665.1z M99.3,682.3l2.5,1.5l10.1-5.3h0.3l-3.8,3.3l-3.3,3.5
				l2,1.3l6.3-1.8l6.1-2l-4.8,3l-4.6,2.8l2.8,1.5l11.4-7.3l-3.5-2.3l-5.3,1.8l-5.6,1.8l3.3-3l2.8-3l-3.5-2.3L99.3,682.3z
				 M114.9,691.4l2.8,1.5l12.1-7.1l-2.8-1.5L114.9,691.4z M120,694.4l2.5,1.3l3.8-2l5-3.3v0.2l-2,3.5l-2,4.3l2.8,1.8l12.1-7.1
				l-2.5-1.5l-3.5,2l-4.8,3l2-3.5l2-4l-3.3-1.8L120,694.4z M71.3,660.3L71.3,660.3v0.8l-0.5,0.5l-1,0.3l-1.3,0.3l-1-0.5l-1-0.3
				l-1-0.7l3.5-2l1,0.5l0.8,0.7L71.3,660.3z M71.8,658.1l-0.8-0.5l2.8-1.8l1.3,0.8l0.8,0.5l0.3,0.5v0.5l-0.5,0.3l-0.8,0.5h-1l-1-0.3
				L71.8,658.1z M79.6,657.6L79.6,657.6l-1-1l-2-1.5l-3.8-1.8l-11.9,6.8l2.8,1.8l3.3,1.5l1.5,0.5l1,0.3h1.3l0.8-0.3l1-0.3l1-0.3
				l0.5-0.5l0.3-0.2l0.5-0.8l-0.3-0.7l-0.5-1l1.5,0.3h1l1.3-0.3l0.8-0.3l0.8-0.5l0.3-0.5l0.3-0.5L79.6,657.6z M60.4,654L60.4,654
				v0.7l-0.5,0.5l-1,0.5h-1.3l-1-0.3l-1-0.5l-1-0.8l3.5-1.8l1,0.5l0.8,0.5L60.4,654z M62.9,649.7L62.9,649.7l1.3,0.5l0.8,0.5
				l0.3,0.5v0.5l-0.5,0.5l-0.8,0.3h-1l-1-0.3l-1-0.5l-0.8-0.5L62.9,649.7z M67.7,653.5L67.7,653.5l0.8-0.5l0.3-0.5L69,652l-0.3-0.7
				l-1-1l-2-1.3l-3.8-2L50,653.8l2.8,2l3.3,1.5l1.5,0.3l1,0.2h1.3h0.8l1-0.2l1-0.5l0.5-0.3l0.3-0.5l0.5-0.8l-0.3-0.7l-0.5-0.7h1.5h1
				H67L67.7,653.5z"/>
			<polygon class="st27" points="658.3,401.4 626.2,382.7 593.9,401.4 626.2,419.9 			"/>
			<polygon class="st28" points="634.6,411.5 634.6,411.5 634.8,411 635.1,410.5 634.8,410 634.6,409.8 628,406 627.2,405.7 
				626.5,405.5 625.5,405.7 624.7,406 618.4,409.8 617.9,410 617.6,410.5 617.9,411 618.4,411.5 624.7,415.3 625.5,415.6 
				626.5,415.6 627.2,415.6 628,415.3 			"/>
			<polygon class="st29" points="626.2,438.3 626.2,419.9 593.9,401.2 593.9,419.9 			"/>
			<polygon class="st30" points="626.5,419.9 626.5,438.3 658.6,419.9 658.6,401.2 			"/>
			<polygon class="st31" points="594.2,401.2 594.2,419.9 626.2,438.3 626.2,419.9 			"/>
			<polygon class="st31" points="626.5,419.9 658.6,401.4 658.6,419.9 626.5,438.5 			"/>
			<polygon class="st32" points="594.2,419.9 594.2,401.2 626.5,382.7 658.6,401.2 658.6,419.9 626.5,438.3 			"/>
			<polygon class="st27" points="663.9,405.7 631.5,424.4 663.9,442.9 695.9,424.4 			"/>
			<polygon class="st28" points="665.6,429 665.6,429 664.9,428.4 664.1,428.4 663.1,428.4 662.6,429 656,432.5 655.5,433 
				655.3,433.5 655.5,434 656,434.5 662.6,438 663.1,438.3 664.1,438.5 664.9,438.3 665.6,438 672.2,434.5 672.7,434 672.7,433.5 
				672.7,433 672.2,432.5 			"/>
			<polygon class="st29" points="631.5,424.2 631.5,442.9 663.9,461.3 663.9,442.9 			"/>
			<polygon class="st30" points="696.2,442.9 696.2,424.2 664.1,442.9 664.1,461.3 			"/>
			<polygon class="st31" points="631.8,424.2 631.8,442.9 663.9,461.3 663.9,442.9 			"/>
			<polygon class="st31" points="664.1,442.9 696.2,424.4 696.2,442.9 664.1,461.5 			"/>
			<polygon class="st32" points="632,442.9 632,424.2 664.1,405.7 696.2,424.2 696.2,442.9 664.1,461.3 			"/>
			<polygon class="st27" points="587.9,405.7 555.5,424.2 587.9,442.9 619.9,424.2 			"/>
			<polygon class="st28" points="580,432.5 580,432.5 579.5,433 579.3,433.5 579.5,434 580,434.5 586.3,438 587.1,438.3 
				588.1,438.5 588.9,438.3 589.6,438 596.2,434.5 596.7,434 596.7,433.5 596.7,433 596.2,432.5 589.6,428.7 588.9,428.4 
				588.1,428.4 587.1,428.4 586.3,428.7 			"/>
			<polygon class="st29" points="555.5,424.2 555.5,442.9 587.9,461.3 587.9,442.9 			"/>
			<polygon class="st30" points="620.2,442.9 620.2,424.2 588.1,442.9 588.1,461.3 			"/>
			<polygon class="st31" points="555.8,424.2 555.8,442.9 587.9,461.3 587.9,442.9 			"/>
			<polygon class="st31" points="588.1,442.9 620.2,424.2 620.2,442.9 588.1,461.5 			"/>
			<polygon class="st32" points="555.8,442.9 555.8,424.2 588.1,405.7 620.2,424.2 620.2,442.9 588.1,461.3 			"/>
			<polygon class="st27" points="658.3,446.1 626,427.4 593.9,446.1 626,464.8 			"/>
			<polygon class="st28" points="634.3,456.2 634.3,456.2 634.8,455.7 635.1,455.2 634.8,454.7 634.3,454.5 628,450.7 627.2,450.4 
				626.2,450.2 625.5,450.4 624.7,450.7 618.4,454.5 617.9,454.7 617.6,455.2 617.9,455.7 618.4,456.2 624.7,460 625.5,460.3 
				626.2,460.3 627.2,460.3 628,460 			"/>
			<polygon class="st29" points="626,483.3 626,464.6 593.9,446.1 593.9,464.6 			"/>
			<polygon class="st30" points="626.2,464.6 626.2,483.3 658.6,464.6 658.6,446.1 			"/>
			<polygon class="st31" points="593.9,446.1 593.9,464.6 626.2,483.3 626.2,464.6 			"/>
			<polygon class="st31" points="626.2,464.8 658.6,446.1 658.6,464.8 626.2,483.3 			"/>
			<polygon class="st32" points="594.2,464.6 594.2,446.1 626.2,427.4 658.6,446.1 658.6,464.6 626.2,483.3 			"/>
			<path class="st33" d="M587.3,477.2L587.3,477.2l0.8-0.2h1l2,1l-0.8,0.5l-0.7,0.3h-0.5h-0.5l-1.3-0.3l-0.5-0.3v-0.5v-0.3
				L587.3,477.2z M596.2,477.9L596.2,477.9l0.5-0.5v-0.7v-0.5l-0.3-0.5l-0.7-0.7l-0.8-0.5l-2.5-1l-1.8-0.5l-1.3,1.3l1.5,0.3l1.5,0.8
				l0.8,0.5l0.3,0.5v0.3l-0.5,0.3v0.3l-2.3-1.3l-2.3-0.5l-1.3-0.3l-1,0.3l-1,0.3l-0.7,0.2l-0.8,0.8l-0.5,1l0.5,0.8l1,0.8l1.5,0.7h2
				v0.3l-0.8,0.5l2.5,1.5l2-1.5l3-1.8L596.2,477.9z M578.3,465.1l-2.8-1.5l-8.6,5.1l2.5,1.5L578.3,465.1z M578,462.1L578,462.1
				l-0.5,0.3v0.5v0.5l0.5,0.3l0.8,0.5h0.7h0.8l0.5-0.3l0.5-0.5l0.2-0.5l-0.2-0.2l-0.5-0.5l-0.8-0.3h-0.7L578,462.1z M580.3,466.3
				L580.3,466.3l-1.5,0.8l-1.5,0.5l-1.3,1l-0.7,0.8l-0.8,1v0.8v1l0.8,1l0.7,0.7l1.5,1l1.5,0.7l2,0.8l1.8-1.5l-1.3-0.5l-1.5-0.5
				l-0.7-0.5l-0.5-0.8l-0.3-0.5l-0.3-0.5l0.3-0.8l0.3-0.5l0.5-0.5l1-0.5l1-0.5l1-0.3l2-0.5l2,0.5l1.8,0.5l1,0.8l0.8,1l2.8-1l-1.3-1
				l-1.3-1l-1.5-0.7l-1.5-0.5l-1.5-0.3l-1.8-0.2h-1.8L580.3,466.3z M605.5,480.5l-1.3-0.5l-2.8-0.8h-1.3H599l-1.3,0.3l-2,0.8
				l-0.8,0.7l-0.8,0.5l-0.3,0.8l-0.3,0.7l0.3,0.5l0.3,0.7l0.8,0.8l1,0.5l1.5,0.8l1.3,0.5l1.8-1.5l-1-0.3l-1-0.2l-0.8-0.8l-0.3-0.8
				l0.3-0.7l1-0.8l1-0.3l1.3-0.2h1.3l1.3,0.5l0.8,0.5l0.5,0.5l2.3-0.7L605.5,480.5z M608,486.3L608,486.3l0.5-0.3l1.3-0.3l1.3,0.5
				l0.5,0.5v0.3l-0.2,0.5l-0.8,0.8l-5,2.8l2.8,1.5l5.3-3l1.5-1l0.5-1.3v-0.5l-0.3-0.3l-1-1l-1-0.3l-0.8-0.3l-2-0.2l5.1-2.8l-2.8-1.5
				l-12.9,7.3l2.8,1.5L608,486.3z M622.2,492.9L622.2,492.9l-0.5,0.5l-0.5,0.5l-3.3-2l0.8-0.3h1h1l0.7,0.3l0.8,0.5V492.9z
				 M614.4,491.1L614.4,491.1l-1.5,1.3l-0.5,0.8v0.5v0.8l0.5,0.8l0.7,0.5l1,0.8l1.8,1l1.8,0.5l1.5-1.3l-1.5-0.8l-1.3-0.5l-0.8-0.5
				l-0.5-0.7v-0.5l0.5-0.5l5.8,3.3l1-0.8l0.8-0.5l0.7-0.5l0.5-0.5l0.3-0.8v-0.5l-0.3-0.8l-1.5-1.3l-1.3-0.5l-1-0.3l-1.3-0.2h-1.3
				l-2.5,0.5L614.4,491.1z M538.6,443.9l2.5-1.5l4.8,2.8l2-1.5l-7.3-4.3l-12.1,7.1l7.6,4.5l2.3-1.3l-4.8-3l2.8-1.5l4.5,2.5l2.3-1.3
				L538.6,443.9z M551.7,455l-1,0.8l-0.5,0.3h-0.5H549l-1.3-0.3l-0.3-0.5l-0.3-0.3l0.3-0.2l0.3-0.3l1-0.3h1L551.7,455z M551.2,450.2
				l-1.3,1.3l1.5,0.3l1.5,0.8l0.8,0.5l0.3,0.5l-0.3,0.2l-0.3,0.3h-0.3l-2.3-1l-2.3-0.5l-1-0.3l-1,0.3l-1,0.3l-0.7,0.3l-1,0.7
				l-0.3,0.8l0.3,1l1,0.8l1.8,0.8h1.8h0.2l-0.7,0.7l2.5,1.3l1.7-1.3l3.3-1.8l1.3-1l0.3-0.5l0.3-0.5v-0.5l-0.5-0.8l-0.5-0.5l-1-0.5
				l-2.3-1.3L551.2,450.2z M550.7,444.6l-12.6,7.3l2.5,1.5l12.9-7.3L550.7,444.6z M566.6,458.7L566.6,458.7l-0.7-1l-1.3-0.7
				l-1.5-0.8l-1.7-0.3h-1.8l-1.3,0.5l-0.7,0.5l-0.3,0.5v0.3l0.3,0.7l0.5,1l0.5,0.8v0.3l-0.3,0.2l-0.7,0.3l-1-0.5l-1-0.8l-0.8-1
				l-2.5,1l0.8,1l1.5,1l2,0.8l1.8,0.2h1.5l1.3-0.5l1-0.8l0.3-0.5l-0.3-0.7l-0.5-1l-0.7-0.8V458h0.3l0.7-0.3l1,0.3l0.8,0.7l0.8,0.8
				L566.6,458.7z M566.1,460.3l1.3,0.7l-3.8,2l-1.3,1l-0.3,0.5l-0.3,0.5l0.5,0.8l0.7,0.7l2,1l2-1.3l-0.8-0.2l-0.5-0.5v-0.3l0.3-0.5
				l0.8-0.3l3-2l2,1.3l2-1.3l-2-1l2.5-1.5l-3.5-1l-1.5,0.7l-1.3-0.5L566.1,460.3z"/>
			<path class="st34" d="M371.2,608.5v-24.7h-21.5v24.7H371.2z M349.8,608.5v-24.7L328,571.2v25L349.8,608.5z"/>
			<polygon class="st35" points="392.9,571.2 371.2,583.8 371.2,608.5 392.9,596.2 			"/>
			<polygon class="st27" points="371.2,546.4 349.8,546.4 328,558.8 328,571.2 349.8,583.8 371.2,583.8 392.9,571.2 392.9,558.8 			
				"/>
			<polyline class="st36" points="328,571.2 349.8,583.8 371.2,583.8 392.9,571.2 			"/>
			<line class="st36" x1="371.2" y1="608.5" x2="371.2" y2="583.8"/>
			<line class="st36" x1="349.8" y1="608.5" x2="349.8" y2="583.8"/>
			<path class="st33" d="M374,563.3l5,3l-4.3,2.3l-2-1l-3.8,1.3l-0.5-1l-12.9,1.3l3.3,1.8l-4.8,2.8l-8.3-4.8l4.8-2.8l3.3,2l2-7.6
				l-1.5-0.3l2-2l-1.8-1.3l4-2.5l5.1,3l-4.3,2.3l-1-0.5l0.8,1.8h-1.8l-1.5,5.8l5.1-2.8l-1-0.7l4-0.8l-1.8-1l4.3-2.5l4.8,2.8
				l-4.3,2.5l-1.8-1l-1.5,2.3l-1-0.5l-5.3,2.8l10.6-1l-0.5-0.8l3.3,0.3l-1-0.5L374,563.3z M375.8,574.2L375.8,574.2l1.3-0.8l1-1l1-1
				l0.7-1l0.5-1l0.3-1l0.3-1.3v-1l-0.3-1.3l-0.5-1.3l-0.5-1l-1-1.3l-1-1l-1-1l-3-2l-3.3-1.5l-3.5-1.3l-4.1-0.7l-4-0.5h-4l-3.8,0.5
				l-3.3,1l-3,1.3l-1.5,1l-1,0.7l-1,1l-0.5,1l-0.7,1l-0.3,1v1.3v1.3l0.3,1.3l0.3,1l0.7,1.3l0.8,1l1,1l1.3,1l2.8,2l3.3,1.8l3.8,1.3
				l3.8,0.7l4.3,0.3h4l3.8-0.5l3.3-0.7L375.8,574.2z"/>
			<polygon class="st37" points="328,596.2 328,558.8 349.8,546.4 371.2,546.4 392.9,558.8 392.9,596.2 371.2,608.5 349.8,608.5 			
				"/>
			<path class="st33" d="M332.1,614.6l1,0.5l0.8,0.5l0.5,0.5v0.8l-0.5,0.5l-1,0.5h-1l-1-0.3l-1-0.5l-1-0.7L332.1,614.6z
				 M338.1,612.3L338.1,612.3l0.8,0.5l0.5,0.5l-0.3,0.5l-0.5,0.5l-0.7,0.3h-0.8l-1-0.3l-1-0.5l-1-0.5l2.8-1.5L338.1,612.3z
				 M337.1,616.1L337.1,616.1h1.5h1.3h1l0.7-0.5l0.8-0.5l0.5-0.5v-0.5l-0.3-0.7l-1-1l-1.7-1.3l-3.8-2l-11.9,6.8l2.8,2l3,1.5l1.5,0.3
				l1.3,0.3h1h1l1-0.3l0.7-0.5l0.5-0.2l0.5-0.5l0.3-0.7v-0.7L337.1,616.1z M329.8,605.3l-2.8-1.5l-12.1,7.1l7.6,4.3l2.3-1.3
				l-4.8-2.8L329.8,605.3z M322.7,603.8l2.3-1.3l-7.6-4.3l-12.1,7.1l7.8,4.3l2.3-1.3l-5.1-2.8l2.8-1.8l4.5,2.5l2.3-1.3l-4.5-2.5
				l2.5-1.5L322.7,603.8z"/>
			<path class="st33" d="M291.4,720.2L291.4,720.2l0.2,0.5l0.5,0.5l12.6,7.1l0.3,0.3l0.5-0.3l0.2-0.3v-0.5v-0.8l-0.2-0.8l-0.5-0.5
				l-0.3-0.5l-12.6-7.1l-0.5-0.3l-0.2,0.3l-0.3,0.3l-0.3,0.5l0.3,0.8L291.4,720.2z M326.5,743.7L326.5,743.7L326,744l-0.5,0.3
				l-1.3-0.5l-33.3-19.2l-1.3-1l-1-1.5l-0.5-1.8l-0.2-1.5v-3.3l0.2-1.5l0.3-0.5l0.3-0.3l0.5-0.3l0.5-0.2l1.3,0.5l33.3,19.2l1.3,1
				l1,1.5l0.7,1.8v1.5v3.3v1.5l-0.5,0.5L326.5,743.7z"/>
			<path class="st33" d="M324.2,700L324.2,700l-0.3-0.7l-0.3-0.8l-0.5-0.5l-0.5-0.5L292.4,680l-0.5-0.3l-0.5,0.3l-0.3,0.3v0.8v22.7
				v0.8l0.3,0.8l0.5,0.7l0.5,0.5l30.3,17.4l0.5,0.3l0.5-0.3l0.3-0.5l0.3-0.5V700z M287.9,702v-22.7V678l0.2-1l0.5-0.8l0.5-0.5
				l0.7-0.5h0.8h0.8l1,0.5l30.3,17.4l1,0.8l0.8,0.7l0.8,1l0.7,1.3l1,2.5l0.2,1.3v1.3v22.7v1.3l-0.2,1l-0.5,0.8l-0.5,0.5l-0.7,0.5
				h-0.8l-0.8-0.3l-1-0.3l-30.3-17.7l-1-0.5l-0.8-0.8l-0.8-1l-0.7-1.3l-0.5-1.3l-0.5-1.3l-0.2-1.3V702z"/>
			<polygon class="st33" points="255.3,698.7 255.3,698.7 255.6,696 256.1,693.7 257.1,691.7 257.8,690.9 258.6,690.1 259.4,689.6 
				260.4,689.4 261.1,689.1 262.1,689.1 264.2,689.4 266.4,690.4 268.7,691.9 270.7,693.9 272.5,696.5 274.3,699.2 275.8,702.5 
				276.8,705.6 277.3,708.6 277.5,711.6 277.3,714.7 276.8,716.9 275.8,718.9 275,719.7 274.3,720.2 273.5,721 272.5,721.2 
				271.7,721.5 270.7,721.5 268.7,721.2 266.4,720.2 264.2,718.7 262.1,716.7 260.4,714.1 258.6,711.1 257.1,708.1 256.1,705.1 
				255.6,702 			"/>
			<polygon class="st33" points="246.5,727.8 246.5,727.8 246.7,725.3 247.5,723 248.7,721.2 250.3,719.9 252,718.9 254.1,718.7 
				255.8,718.9 257.8,719.9 275,729.8 277.1,731.3 278.8,733.1 280.8,735.6 282.6,738.4 284.1,741.7 285.4,745 286.1,747.7 
				286.4,750.8 286.4,769.7 278.8,765.4 278.8,752 276.3,750.8 276.3,763.9 256.6,752.5 256.6,739.1 254.1,737.9 254.1,751 
				246.5,746.7 			"/>
			<path class="st33" d="M260.9,772L260.9,772l-2.3-0.5l-2,0.3l-1.8,0.5l-0.5,0.5l-0.5,0.5l-0.2,0.5v0.3l0.2,1.3l0.8,1l0.5,0.8
				l0.2,0.8v0.3l-0.5,0.5l-0.5,0.3h-1l-0.8-0.3l-1-0.5l-1.3-1l-1-1l-2.8,0.8l0.2,0.8l0.8,0.5l1.8,1.3l2.3,1l2.5,0.5h1l1-0.3l1.8-0.5
				l1-0.8l0.3-0.5l0.3-0.5l-0.3-1l-0.7-1.3l-1-1.3v-0.5l0.5-0.5l0.5-0.3h0.7l0.8,0.3l0.8,0.5l1.3,0.8l0.7,1l2.8-1l-0.8-1l-1.7-1.3
				L260.9,772z M256.3,769.2l-2.8-1.5l-7.1,4l-1.5,0.5l-1.5,0.5l-1.3-0.3l-1-0.3l-0.7-0.8l-0.3-0.8l0.3-0.3l0.5-0.5l1.3-1l6.8-4.1
				l-2.8-1.5l-6.6,4l-2.3,1.5l-0.5,0.8l-0.3,0.8v0.8l0.5,0.8l1.8,1.3l2.5,1l1.3,0.5h1.3l1.3-0.3l1.5-0.3l2.8-1.3L256.3,769.2z
				 M279.8,785.1L279.8,785.1l0.8,0.5l0.2,0.5l0.3,0.3l-0.3,0.3l-0.5,0.5l-1,0.5h-1l-1-0.3l-1-0.5l-1-0.5l3.3-2L279.8,785.1z
				 M282.1,789.2L282.1,789.2l1-0.5l0.8-0.5l0.5-0.5l0.2-0.5v-0.5l-0.2-0.8l-0.5-0.8l-2.3-1.5l-3.8-1.8l-12.1,6.8l2.8,1.5l4.8-2.8
				l0.7,0.5l0.8,0.5l0.3,0.5l-0.3,0.5l-0.8,0.8l-2,2.3l3,1.5l0.7-1l1.5-1.5l0.8-0.5l0.3-0.8v-0.5l-0.3-0.5l1.3,0.3h1.3L282.1,789.2z
				 M273.5,781.8l2.3-1.5l-7.6-4.3l-12.1,7.1l7.8,4.5l2.3-1.3l-5-3l3-1.5l4.3,2.5l2.3-1.3l-4.6-2.5l2.5-1.5L273.5,781.8z
				 M217.7,757.6L217.7,757.6h-1.3l-1-0.3l-1-0.5l-1-0.5l3.5-2l1,0.5l0.7,0.8l0.5,0.5v0.5l-0.5,0.8L217.7,757.6z M219.7,753.8
				l-0.7-0.5l2.8-1.8l1.3,0.8l0.8,0.5l0.3,0.5v0.5l-0.5,0.3l-0.7,0.3h-1h-1L219.7,753.8z M224.5,750.8L224.5,750.8l-3.8-1.8
				l-11.9,6.8l2.8,1.8l3.3,1.5l1.5,0.5l1,0.3h1.3l0.7-0.3l1-0.3l1-0.3l0.5-0.5l0.3-0.3l0.5-0.8l-0.3-1l-0.5-0.8l1.5,0.3h1l1.3-0.3
				l0.8-0.3l0.7-0.5l0.3-0.5l0.3-0.8l-0.3-0.5l-1-1.3L224.5,750.8z M225.3,763.1L225.3,763.1l-1-0.5l3.5-2l1,0.5l0.8,0.5l0.5,0.8
				v0.5l-0.5,0.8l-1,0.3h-1.3l-1-0.3L225.3,763.1z M230.6,759.9l-0.7-0.5l2.8-1.5l1.3,0.5l0.8,0.8l0.3,0.5v0.3l-0.5,0.5l-0.7,0.3h-1
				l-1-0.3L230.6,759.9z M225.8,765.4l1.5,0.5h1l1.3,0.3l0.7-0.3l1-0.3l1-0.5l0.5-0.3l0.3-0.5l0.5-0.8l-0.3-0.8l-0.5-0.8l1.5,0.3h1
				l1.3-0.3l0.7-0.3l0.8-0.5l0.3-0.8l0.3-0.5l-0.3-0.5l-1-1.3l-2-1.3l-3.8-1.8l-11.9,6.8l2.8,1.8L225.8,765.4z"/>
			<path class="st33" d="M434.3,740.7L434.3,740.7l0.5,0.5l0.5,0.5l12.4,7.1l0.5,0.3l0.5-0.3l0.3-0.3V748v-0.8l-0.3-0.8l-0.5-0.5
				l-0.5-0.5l-12.4-7.1l-0.5-0.3l-0.5,0.3l-0.3,0.3v0.5v0.8L434.3,740.7z M469.4,764.2L469.4,764.2l-0.2,0.3l-0.5,0.3l-1.3-0.5
				L433.8,745l-1-1l-1-1.5l-0.7-1.8l-0.3-1.5v-3.3l0.3-1.5l0.3-0.5l0.5-0.3l0.5-0.3l0.5-0.3l1,0.5l33.6,19.2l1.3,1l0.7,1.5l0.8,1.8
				l0.3,1.5v3.3l-0.3,1.5l-0.3,0.5L469.4,764.2z"/>
			<path class="st33" d="M467.2,720.4L467.2,720.4v-0.8l-0.3-0.8l-0.5-0.5l-0.5-0.5l-30.3-17.4l-0.5-0.3l-0.5,0.3l-0.3,0.3l-0.3,0.7
				v22.8l0.3,0.8l0.3,0.8l0.5,0.8l0.5,0.5l30.3,17.4l0.5,0.3l0.5-0.3l0.3-0.5v-0.5V720.4z M431.1,722.5v-22.7v-1.3l0.3-1l0.5-0.8
				l0.5-0.5l0.8-0.5h0.7h0.8l1,0.5l30.3,17.4l0.8,0.8l1,0.8l0.7,1l0.8,1.3l0.7,2.5l0.3,1.3l0.3,1.3v22.7l-0.3,1.3l-0.3,1l-0.3,0.8
				l-0.5,0.5l-0.8,0.5h-0.7l-1-0.3l-0.8-0.3l-30.3-17.7l-1-0.5l-0.8-0.8l-0.7-1l-0.8-1.3l-0.5-1.3l-0.5-1.3l-0.3-1.3V722.5z"/>
			<polygon class="st33" points="398.5,719.2 398.5,719.2 398.5,716.4 399.3,714.1 400.2,712.1 400.8,711.4 401.5,710.6 
				402.5,710.1 403.3,709.8 404.3,709.6 405.3,709.6 407.3,709.8 409.6,710.8 411.6,712.4 413.6,714.4 415.7,716.9 417.4,719.7 
				418.7,723 419.7,726 420.5,729 420.7,732.1 420.5,735.1 419.7,737.4 418.7,739.4 418.2,740.2 417.4,740.7 416.4,741.4 
				415.7,741.7 414.6,741.9 413.6,741.9 411.6,741.7 409.6,740.7 407.3,739.1 405.3,737.1 403.3,734.6 401.5,731.6 400.2,728.5 
				399.3,725.5 398.5,722.5 			"/>
			<polygon class="st33" points="389.6,748.2 389.6,748.2 389.9,745.7 390.7,743.5 391.7,741.7 393.4,740.4 395.2,739.4 397,739.1 
				399,739.4 400.8,740.4 418.2,750.3 420.2,751.8 422,753.6 423.7,756.1 425.5,758.8 427.3,762.1 428.5,765.4 429,768.2 
				429.3,771.2 429.3,790.2 422,785.9 422,772.5 419.4,771.2 419.4,784.4 399.5,773 399.5,759.6 397.2,758.3 397.2,771.5 
				389.6,767.2 			"/>
			<path class="st33" d="M403.8,792.4L403.8,792.4l-2.3-0.5l-2,0.3l-1.7,0.5l-0.5,0.5l-0.3,0.5l-0.3,0.5l-0.3,0.3l0.3,1.3l0.7,1
				l0.8,0.8l0.3,0.8l-0.3,0.3L398,799l-0.8,0.3h-0.8l-0.7-0.3l-1-0.5l-1.5-1l-0.8-1l-2.8,0.8l0.3,0.8l0.5,0.5l1.8,1.3l2.5,1l2.5,0.5
				h1l1-0.3l1.8-0.5l0.7-0.8l0.5-0.5v-0.5v-1l-0.8-1.3l-1-1.3v-0.5l0.3-0.5l0.8-0.3h0.5l1,0.3l0.8,0.5l1,0.8l1,1l2.8-1l-0.8-1
				l-1.8-1.3L403.8,792.4z M399.3,789.7l-2.8-1.5l-6.8,4l-1.5,0.5l-1.5,0.5l-1.3-0.3l-1.3-0.3l-0.5-0.8l-0.3-0.8l0.3-0.3l0.3-0.5
				l1.3-1l7.1-4l-2.8-1.5l-6.8,4l-2,1.5l-0.8,0.8v0.8v0.8l0.5,0.8l1.5,1.3l2.5,1l1.3,0.5h1.3l1.5-0.3l1.3-0.3l2.8-1.3L399.3,789.7z
				 M423,805.6L423,805.6l0.8,0.5l0.3,0.5v0.3v0.3l-0.8,0.5l-0.7,0.5h-1l-1-0.3l-1-0.5l-1.3-0.5l3.6-2L423,805.6z M425,809.6
				L425,809.6l1.3-0.5l0.7-0.5l0.5-0.5l0.3-0.5v-0.5l-0.5-0.8l-0.5-0.8l-2-1.5l-4-1.8l-11.9,6.8l2.8,1.5l4.8-2.8l0.8,0.5l0.5,0.5
				l0.3,0.5v0.5l-0.7,0.8l-2,2.3l2.8,1.5l1-1l1.5-1.5l0.5-0.5l0.3-0.8v-0.5v-0.5l1,0.3h1.5L425,809.6z M416.7,802.3l2.3-1.5
				l-7.6-4.3l-12.1,7.1l7.8,4.6l2.3-1.3l-5.1-3l2.8-1.5l4.6,2.5l2.3-1.3l-4.5-2.5l2.5-1.5L416.7,802.3z M360.6,778L360.6,778h-1
				l-1-0.3l-1-0.5l-1-0.5l3.3-2l1,0.5l1,0.8l0.5,0.5v0.5l-0.8,0.8L360.6,778z M362.9,774.3l-1-0.5l2.8-1.8l1.5,0.8l0.5,0.5l0.5,0.5
				l-0.3,0.5l-0.3,0.3l-0.8,0.3h-1h-1L362.9,774.3z M367.7,771.2L367.7,771.2l-3.8-1.8l-11.9,6.8l2.8,1.8l3.3,1.5l1.3,0.5l1.3,0.3h1
				l1-0.3l1-0.3l0.7-0.3l0.5-0.5l0.5-0.3l0.3-0.8v-1l-0.7-0.8h0.2l1.3,0.3h1.3l1-0.3l1-0.3l0.5-0.5l0.5-0.5v-0.8v-0.5l-1-1.3
				L367.7,771.2z M368.4,783.6L368.4,783.6l-1-0.5l3.3-2l1,0.5l1,0.5l0.5,0.8v0.5l-0.8,0.8l-1,0.3h-1l-1-0.3L368.4,783.6z
				 M373.8,780.3l-1-0.5l2.8-1.5l1.5,0.5l0.5,0.8l0.5,0.5l-0.2,0.3l-0.3,0.5l-0.8,0.3h-1l-1-0.3L373.8,780.3z M368.9,785.9l1.3,0.5
				h1.3l1,0.3l1-0.3l1-0.3l0.8-0.5l0.5-0.3l0.5-0.5l0.3-0.8v-0.8l-0.7-0.8h0.2l1.3,0.3h1.3l1-0.3l1-0.3l0.5-0.5l0.5-0.8v-0.5v-0.5
				l-1-1.3l-2-1.3l-3.8-1.8l-11.9,6.8l2.8,1.8L368.9,785.9z"/>
			<path class="st27" d="M774.5,325.6l21.5-12.4v-12.6l-21.5-12.4h-21.7l-21.5,12.4v12.6l21.5,12.4H774.5z M774.5,325.6h-21.7
				l10.9,18.7L774.5,325.6z"/>
			<path class="st34" d="M795.9,300.6v12.6l10.9,6.1L795.9,300.6z M731.3,313.3l-10.9,6.1v37.4l43.2,25v-37.4l-10.9-18.7
				L731.3,313.3z M720.4,319.3l10.9-6.1v-12.6L720.4,319.3z"/>
			<polygon class="st35" points="806.8,356.7 806.8,319.3 795.9,313.3 774.5,325.6 763.6,344.3 763.6,381.7 			"/>
			<polyline class="st36" points="806.8,319.3 795.9,313.3 774.5,325.6 763.6,344.3 763.6,381.7 			"/>
			<line class="st36" x1="795.9" y1="313.3" x2="795.9" y2="300.6"/>
			<polyline class="st36" points="720.4,319.3 731.3,313.3 731.3,300.6 			"/>
			<polyline class="st36" points="731.3,313.3 752.7,325.6 774.5,325.6 			"/>
			<line class="st36" x1="763.6" y1="344.3" x2="752.7" y2="325.6"/>
			<polygon class="st33" points="785.3,310.7 785.3,310.7 783.3,310.2 781.3,309.7 776.5,307.9 768.6,303.9 764.6,301.4 
				761.3,298.8 758.5,296.6 757.5,295.6 757,294.6 737.6,305.7 737.6,306.2 737.8,306.7 739.3,308.7 741.4,310.2 743.6,312 
				746.4,314 749.7,316 755.8,319.1 758.3,320.3 760.8,321.1 764.1,322.1 765.1,322.1 765.9,321.9 			"/>
			<polygon class="st33" points="786.6,307.7 786.6,307.7 785.1,306.2 782.8,304.4 779.5,302.1 776,299.9 769.9,296.6 767.1,295.3 
				764.4,294.3 760.8,293.3 759.8,293.3 759,293.3 758.8,293.8 759,294.3 759.8,295.3 760.8,296.6 762.6,298.1 764.9,299.6 
				770.1,303.2 774.2,305.2 778,306.9 781.3,308.2 784,309.2 786.1,309.5 787.1,309.5 787.1,309.2 787.1,309 			"/>
			<polygon class="st27" points="773.2,309 769.1,306.7 757.3,310.5 764.1,303.7 760,301.4 746.2,309.2 748.7,310.7 759.5,304.4 
				751.5,312.3 754.3,313.8 767.6,309.2 756.8,315.5 759.5,317.1 			"/>
			<polygon class="st37" points="720.4,356.7 720.4,319.3 731.3,300.6 752.7,288.2 774.5,288.2 795.9,300.6 806.8,319.3 
				806.8,356.7 763.6,381.7 			"/>
			<path class="st33" d="M731.5,374.4L731.5,374.4l0.7,0.5l0.5,0.5l0.2,0.5l0.3,0.5l-0.3,0.8l-0.2,0.5l-0.5,0.5l-0.7,0.5l-1.3,0.8
				l-1,0.3l-1,0.2H727l-2-0.2l-2-0.8l-0.8-0.8l7.8-4.5L731.5,374.4z M736.6,375.6L736.6,375.6l-0.8-0.7l-2.5-2l-4-1.8l-11.9,6.8
				l3,1.8l1.8,1l1.8,0.7l1.8,0.5l1.8,0.3h1.8l1.5-0.5l1.8-0.5l1.8-0.8l1.5-1l0.8-1l0.5-0.7l-0.3-1L736.6,375.6z M720.9,368.1
				L720.9,368.1l0.5,0.7l0.5,0.5v0.3l-0.3,0.3l-0.5,0.5l-1,0.3h-0.7h-1.3l-1-0.5l-1-0.8l3.3-1.8L720.9,368.1z M724.7,368.3
				L724.7,368.3l-2.3-1.5l-3.8-2l-11.9,7.1l2.5,1.5l4.8-2.8l1,0.5l0.5,0.5l0.3,0.5l-0.3,0.5l-0.5,0.7l-2,2l2.8,1.5l1-1l1.5-1.5
				l0.5-0.5l0.3-0.5v-0.5l-0.3-0.5v-0.3l1.3,0.3h1.3l1.5-0.3l1.3-0.5l0.5-0.5l0.5-0.5l0.3-0.5v-0.5l-0.3-0.8L724.7,368.3z
				 M737.3,380.7L737.3,380.7l-0.3,0.5l-0.3,0.5l0.3,1l0.7,1.3l0.8,0.8l0.3,0.5l-0.3,0.5l-0.3,0.3l-0.7,0.3h-0.8h-0.8l-1-0.5l-1.5-1
				l-0.7-1.3l-2.8,1l0.3,0.5l0.5,0.8l1.8,1.3l2.5,1l2.5,0.5h1l1-0.3l1.8-0.8l0.7-0.7l0.5-0.5V386v-1.3l-0.8-1l-1-1.5v-0.5l0.3-0.3
				l0.7-0.2h0.5l1,0.2l0.7,0.3l1,0.8l1,1l2.8-0.8l-0.7-1l-1.8-1.3l-2.3-1l-2.3-0.3h-2l-1.8,0.7l-0.5,0.5L737.3,380.7z"/>
			<path class="st33" d="M485.8,541.1l-12.1,7.1l7.6,4.6l2.3-1.5l-4.8-2.8l2.8-1.8l4.5,2.8l2.3-1.3l-4.6-2.8l2.5-1.3l4.8,2.5l2-1.3
				L485.8,541.1z M495.2,548.4L495.2,548.4h-1.5l-1.8,0.3l-1.8,0.5l-1.5,0.8l-1.3,0.7l-0.8,1l-0.5,0.8l-0.3,1l0.3,0.7l0.5,1l1,1
				l1.3,1l1.8,0.8l1.8,0.5l1.8-1.3l-1.3-0.5l-1.3-0.7l-1-0.5l-0.5-0.5l-0.3-0.5v-0.7v-0.5l0.3-0.5l0.8-0.7l0.7-0.5l1-0.5l1-0.3
				l2-0.2l2,0.2l1.8,0.8l1,0.8l1,0.7l2.5-0.7l-1-1.3l-1.3-0.7l-1.5-0.8l-1.5-0.5l-1.8-0.5H495.2z M511.1,558.5L511.1,558.5l0.3-0.5
				v-0.5v-0.8l-0.5-0.5l-0.5-0.5l-1-0.8l-2.5-1l-2.5-0.5l-1,1.8l1.8,0.3l1.5,0.5l0.7,0.5l0.3,0.8v0.5l-0.7,0.5l-1.3,0.2l-1.8,0.3
				H498h-2.8l-1.8,1l8.4,4.8l2.3-1.5l-4.3-2.5l4.3,0.3l2.3-0.3l1.8-0.3l1.8-0.7l0.8-0.5L511.1,558.5z"/>
			<polygon class="st27" points="396.2,455.7 439.4,480.7 482.6,455.7 439.4,431 			"/>
			<polygon class="st34" points="396.2,455.7 396.2,480.7 439.4,505.7 439.4,480.7 			"/>
			<polygon class="st35" points="482.6,480.7 482.6,455.7 439.4,480.7 439.4,505.7 			"/>
			<polyline class="st36" points="482.6,455.7 439.4,480.7 439.4,505.7 			"/>
			<line class="st36" x1="396.2" y1="455.7" x2="439.4" y2="480.7"/>
			<polygon class="st33" points="441.4,462.1 441.4,462.1 440.4,461.5 439.4,461.5 438.1,461.5 437.1,462.1 428.5,467.1 428,467.6 
				427.8,468.3 428,468.9 428.5,469.6 437.1,474.4 438.1,474.9 439.4,474.9 440.4,474.9 441.4,474.4 450.3,469.6 450.8,468.9 
				451,468.3 450.8,467.6 450.3,467.1 			"/>
			<polygon class="st37" points="396.2,480.7 396.2,455.7 439.4,431 482.6,455.7 482.6,480.7 439.4,505.7 			"/>
			<path class="st33" d="M419.4,504l-2.8-1.5l-8.8,5.1l2.8,1.5L419.4,504z M419.2,502.5L419.2,502.5l0.7,0.3l0.8,0.2l0.7-0.2
				l0.5-0.3l0.5-0.3v-0.5v-0.3L422,501l-0.8-0.3l-0.7-0.3l-1.5,0.5l-0.3,0.3l-0.3,0.5l0.3,0.5L419.2,502.5z M401.5,495.9
				L401.5,495.9l0.8,0.5v0.3v0.5l-0.5,0.5l-0.7,0.7l-1.3,0.5l-1,0.2h-1.3l-0.7-0.5l-0.5-0.3l-0.3-0.5v-0.5l0.3-0.5l2.3-1.3l0.8-0.2
				h1L401.5,495.9z M405.6,498.7L405.6,498.7l0.3-0.8l0.3-0.5v-0.8l-0.3-0.5l-0.5-0.5l-0.5-0.5l-1-0.5l-1.3-0.3h-1h-1.3l1-0.8
				l-2.3-1.5l-12.4,7.3l2.8,1.5l4.5-2.5v0.5v0.5l0.5,0.5l0.8,0.3l1.8,0.8l2,0.3h1.3l1.3-0.3l1-0.5l1.3-0.5l1-0.8L405.6,498.7z
				 M401,503.5l2.8,1.5l5.1-2.8l0.8-0.3h1l0.8,0.3l0.8,0.3l0.7,0.5l2.5-1.5l-0.5-0.2l-0.8-0.5l-1-0.3h-1.3l-1.3,0.3l1.5-1l-2.3-1.3
				l-2.8,1.8L401,503.5z M412.9,510.3l2.5,1.5l5-3l1-0.3l1-0.2l0.7,0.2l0.5,0.3l0.3,0.3v0.5l-0.3,0.5l-0.8,0.5l-4.8,2.8l2.5,1.5
				l5.3-3l0.7-0.3h1h0.7l0.5,0.3l0.3,0.2v0.5l-0.3,0.5l-0.8,0.5l-4.8,2.8l2.5,1.5l5.3-2.8l0.8-0.8l0.7-0.5l0.3-0.5l0.3-0.5v-0.5
				l-0.3-0.5l-0.5-0.3l-0.5-0.5l-1-0.5l-1-0.3h-2.3l0.2-0.5V509l-0.5-0.5l-0.8-0.5l-1-0.5l-1-0.3h-2l1-0.8l-2.3-1.3L412.9,510.3z
				 M437.4,516.9L437.4,516.9h1l0.8,0.5l0.7,0.5v0.3v0.3l-0.5,0.5l-0.5,0.3l-3.3-1.8l0.7-0.3L437.4,516.9z M436.4,515.1L436.4,515.1
				l-2.5,0.5l-1.7,0.8l-1.5,1.3l-0.5,0.7v0.8v0.5l0.5,0.7l0.8,0.8l1,0.5l1.8,1l1.8,0.5l1.5-1.3l-1.5-0.5l-1.3-0.5l-0.8-0.8l-0.5-0.5
				v-0.8l0.5-0.5l5.8,3.3l1-0.5l1.5-1l0.5-0.8l0.2-0.5v-0.8l-0.2-0.5l-1.5-1.3l-1.3-0.8l-1-0.2l-1.3-0.3H436.4z M361.4,477.9l3-1.5
				l4.5,2.5l2-1.3l-4.3-2.5l2.5-1.5l4.6,2.8l2.3-1.5l-7.3-4.3l-12.1,7.1l7.6,4.6l2.3-1.3L361.4,477.9z M373,478.7L373,478.7
				l-1.5,0.7l-1.3,0.8l-0.8,1l-0.5,0.7l-0.3,1l0.3,1l0.5,0.8l0.8,1l1.5,1l1.5,0.8l2,0.8l1.8-1.5l-1.3-0.5l-1.5-0.8l-0.8-0.5
				l-0.5-0.5l-0.3-0.5l-0.3-0.5l0.3-0.8l0.3-0.5l0.8-0.5l0.7-0.5l1-0.5l1-0.5l2-0.3l2,0.3l1.8,0.7l1,0.8l0.8,1l2.8-1l-1-1.3
				l-1.5-0.8l-1.3-0.7l-1.5-0.5l-1.8-0.3l-1.8-0.3h-1.8l-1.5,0.3L373,478.7z M394.2,487L394.2,487v-0.5l-0.5-0.7l-0.5-0.5l-1-0.5
				l-2.5-1.3l-2.5-0.3l-1,1.5l1.5,0.2l1.8,0.5l0.7,0.8l0.3,0.5l-0.3,0.5l-0.5,0.5l-1.3,0.3l-1.8,0.3h-5.8H378l-1.8,1l8.4,4.8
				l2.3-1.3l-4.3-2.8l4.3,0.3h2.3l1.8-0.5l1.8-0.8l0.8-0.5l0.5-0.5l0.3-0.5V487z"/>
			<polygon class="st34" points="355.3,224.8 355.3,225.6 355.3,310.7 429.6,353.7 429.6,267.8 			"/>
			<polygon class="st27" points="354.3,225.1 355.3,225.6 355.3,224.8 429.6,267.8 429.3,267.8 540.4,203.6 465.9,160.7 			"/>
			<polygon class="st35" points="541.1,289.2 541.1,203.4 429.6,267.8 429.6,353.7 			"/>
			<polyline class="st36" points="392.4,203.4 429.3,224.6 466.7,246.3 503.8,224.8 466.7,203.4 429.6,181.7 			"/>
			<polyline class="st36" points="503.8,224.8 504,224.8 541.1,203.4 			"/>
			<line class="st36" x1="503" y1="182.2" x2="466.7" y2="203.4"/>
			<polyline class="st36" points="392.4,332.2 392.4,246.3 355.3,224.8 			"/>
			<polyline class="st36" points="429.3,224.6 392.4,246.3 429.6,267.8 466.7,246.3 			"/>
			<line class="st36" x1="429.6" y1="353.7" x2="429.6" y2="267.8"/>
			<line class="st36" x1="466.7" y1="246.3" x2="466.7" y2="332.2"/>
			<line class="st36" x1="504" y1="224.8" x2="504" y2="310.7"/>
			<path class="st33" d="M470.7,216L470.7,216l0.3-0.3v-0.5l-0.5-1l-1-1l-1.7-1.5l-1.8-1.5l-2.3-1.5l-2.8-1.7l-2.8-1.5l-2.5-1.3
				l-2.8-1l-2.5-1l-2.3-0.7l-1.7-0.3h-1.3l-1,0.3l-0.3,0.2v0.3l0.5,1l1.3,1.3l1.5,1.5l2,1.5l2.3,1.5l2.5,1.5l5.5,3l2.8,1l2.5,1
				l2.3,0.5l2,0.5h1L470.7,216z M468.4,217.5L468.4,217.5l-1.8-0.5l-2.5-0.5l-2.5-1l-2.8-1.3L456,213l-2.8-1.5l-2.8-1.8l-2.3-1.5
				l-2-1.5l-1.8-1.5l-1.3-1.7l-0.7-1v-0.5l-13.1,12.4l1,1.8l1.8,1.5l2,1.5l2.5,1.8l2.8,1.3l2.5,1.3l2.8,1l2.8,0.5L468.4,217.5z"/>
			<polygon class="st38" points="355.3,310.7 355.3,224.8 466.7,160.4 541.1,203.4 541.1,289.2 429.6,353.7 			"/>
			<path class="st33" d="M378.3,332.7L378.3,332.7l-1.5-1l-2.3-1l-2.3-0.3h-2l-1.8,0.8l-0.5,0.3l-0.5,0.5l-0.2,0.5v0.5l0.2,1
				l0.8,1.3l0.5,0.7l0.3,0.5v0.5l-0.5,0.2l-0.5,0.3h-0.7l-1-0.3l-0.8-0.2l-1.5-1.3l-1-1l-2.8,1l0.5,0.5l0.5,0.5l1.8,1.5l2.5,1
				l2.3,0.3h1h1l1.8-0.7l1-0.8l0.3-0.5l0.3-0.5l-0.3-1l-0.7-1l-1-1.5l0.3-0.5l0.3-0.3l0.5-0.3h0.7h0.8l1,0.5l1,0.7l0.7,1l3-1
				L378.3,332.7z M372.5,340.3l-2.5,1l0.8,1l1.7,1.5l2.3,1l2.3,0.5l2.3-0.3l1.5-0.7l1-0.5l0.3-0.8l-0.3-1l-0.5-0.7l1.3,0.2h1.3
				l1.3-0.2l1-0.3l0.5-0.5l0.5-0.3v-0.5v-0.5v-0.5l-0.5-0.5l-1.5-1.3l-2.3-1l-2.3-0.5l-1.3,1.5l1.5,0.2l1.5,0.8l0.7,0.5l0.3,0.5v0.2
				l-0.5,0.5l-0.8,0.3l-1-0.3l-0.8-0.3l-0.8-0.3l-1.3-0.7l-1.8,1.3l1,0.5l0.7,0.8l0.5,0.5v0.8l-0.5,0.5l-0.7,0.3h-1l-1-0.3l-1-0.5
				l-1-0.8L372.5,340.3z"/>
			<path class="st35" d="M304.6,323.1l-24.8,14.4v85.9l24.8-14.4V323.1z M304.6,409l-24.8,14.4l4.8,8.6l25-14.4L304.6,409z
				 M309.6,417.6V412l-5-3L309.6,417.6z"/>
			<path class="st34" d="M279.8,337.5l-49.7-28.8v85.9l49.7,28.8V337.5z M274.8,432h9.8l-4.8-8.6L274.8,432z M274.8,432l5-8.6
				l-49.7-28.8l-4.8,8.6L274.8,432z M225.3,397.6v5.6l4.8-8.6L225.3,397.6z"/>
			<polygon class="st27" points="279.8,337.5 304.6,323.1 255.1,294.6 230.1,308.7 			"/>
			<polyline class="st36" points="304.6,323.1 279.8,337.5 230.1,308.7 			"/>
			<polyline class="st36" points="279.8,337.5 279.8,423.4 304.6,409 			"/>
			<polyline class="st36" points="274.8,432 279.8,423.4 230.1,394.6 225.3,403.2 			"/>
			<line class="st36" x1="279.8" y1="423.4" x2="284.6" y2="432"/>
			<line class="st36" x1="309.6" y1="417.6" x2="304.6" y2="409"/>
			<polygon class="st38" points="225.3,403.2 225.3,397.6 230.1,394.6 230.1,308.7 255.1,294.6 304.6,323.1 304.6,409 309.6,412 
				309.6,417.6 284.6,432 274.8,432 			"/>
			<path class="st33" d="M264.4,366l0.8,0.3l-0.3-10.1l-8.6-3.5v0.5L264.4,366z M253.1,348.1l3.3,2v1l8.6,3.5l-2.3-3.5l-2.5-3
				l-2.5-2.3l-2.8-2l-3-1.3l-1.3-0.3l-1.3-0.3H248h-1.3l-1,0.3l-1.3,0.5l8.6,6.3V348.1z M254.1,353.2l-0.7-0.5l-8.4,3.3v0.5l8.1,7.3
				V363l1,0.7V353.2z M255.8,354.2l-0.5-0.5v10.6l1,0.7v0.8l7.6,1.8v-0.5L255.8,354.2z M253.1,350.9v-0.3l-8.6-6.3l-0.7,9.6l0.7,0.5
				L253.1,350.9z M242.7,353.4l0.7-9.9l-1.3,1l-0.8,1l-1,1.3l-0.5,1.5l-0.7,1.7l-0.3,1.8l-0.3,2v2.3l0.3,4.1l0.5,3.8l2.5-6.8
				l-0.5-0.3v-4.3L242.7,353.4z M245,359l-0.5-0.3l3.8,13.4l0.3,0.3l4.6-5.3v-1.5l-8.1-7.3V359z M243.2,358L243.2,358l-2.8,7.3
				l5.8,6.1v-0.3l0.7,0.3L243.2,358z M255.3,368.6l-1.3-0.5l-4.3,5.3v1l10.3,6.1v-1L255.3,368.6z M256.3,367.3v1.5l4.8,10.9l0.5,0.2
				l2.8-9.6l-0.5-0.5v-0.8L256.3,367.3z M249.8,375.9L249.8,375.9l5.3,10.1l5.1-3.5V382L249.8,375.9z M246.2,375.4v-2.5l-6.1-6.3
				l1,3l1.3,3l1.5,3l1.8,2.8l2,2.5l2,2.3l2.3,2l2,1.5l-5-9.9L246.2,375.4z M265.7,371.1L265.7,371.1l-2.8,9.6l0.5,0.3v0.5l5.3,0.3
				L265.7,371.1z M267.4,367.6v4.3h-0.5l3,9.8l0.2-1.5l0.5-1.8l0.3-3.5l-0.5-4.5l-0.7-4.6l-1.5-4.5l-2.3-4.5l0.3,10.4L267.4,367.6z
				 M263.4,385.2l-2.5-1.5l-5.1,3.8l2.3,1l2,0.3l1.8,0.3l2-0.5l1.5-0.8l1.5-1.3l1.3-1.3l1-2l-5.8-0.3V385.2z"/>
			<path class="st33" d="M238.9,430l2.8-1.8l4.6,2.8l2.3-1.3l-7.3-4.3l-12.1,7.1l2.8,1.5l4.8-2.8l4.3,2.5l2.3-1.3L238.9,430z
				 M229.3,424.7L229.3,424.7l0.5,0.3v0.5v0.5l-0.3,0.3l-0.5,0.5l-1.8,0.8l-0.7,0.3h-0.8H225l-0.8-0.3l-0.5-0.5l-0.3-0.8l0.5-0.5
				l0.8-0.7l1.3-0.5l1-0.2h1.3L229.3,424.7z M239.7,423.7l-2.8-1.5l-4.8,2.8v-0.5l-0.3-0.5l-0.5-0.5l-0.8-0.5l-0.7-0.3l-1-0.3
				l-1-0.3h-1.3l-2.3,0.3l-1,0.5l-1.3,0.5l-0.8,0.5l-0.7,0.7l-0.5,0.5v0.7v0.5v0.8l0.5,0.5l0.7,0.5l1,0.3l1,0.5h1h1.3l-1.3,0.7
				l2.5,1.5L239.7,423.7z M238.4,437.8l2.8,1.5l5.1-2.8l0.7-0.3h1l0.8,0.3l0.8,0.3l0.7,0.5l2.5-1.5l-0.5-0.3l-0.7-0.5l-1-0.2h-1.3
				L248,435l1.5-1l-2.5-1.3l-2.8,1.8L238.4,437.8z M250.5,442.6L250.5,442.6v-0.7l0.5-0.5l1-0.7l1-0.5l1-0.3h1.3l1,0.3l0.5,0.3v0.3
				l0.3,0.5l-0.3,0.3l-0.5,0.7l-0.8,0.5l-1.3,0.5l-1.3,0.3h-1l-1-0.3L250.5,442.6z M253.8,437.8L253.8,437.8l-2.5,0.3l-1,0.3
				L249,439l-0.8,0.5l-0.7,0.8l-0.3,0.7l-0.3,0.5l0.3,0.7l0.3,0.8l0.7,0.5l0.8,0.5l2,1l2.5,0.3l2.3-0.3l1.3-0.3l1.3-0.7l1.5-1.3
				l0.5-0.5v-0.7v-0.8l-0.5-0.5l-0.5-0.8l-1-0.5l-1-0.5l-1.3-0.5l-1-0.3H253.8z M258.4,449.4l5.1-3l0.8-0.2l1.3-0.3l0.7,0.3l0.5,0.2
				l0.5,0.3v0.5l-0.3,0.5l-0.8,0.5l-5,2.8l2.8,1.8l5.3-3l0.8-0.8l0.7-0.5l0.3-0.5l0.3-0.5v-0.5l-0.3-0.5l-1.3-0.8l-1-0.5l-1-0.3h-2
				l1-0.7l-2.3-1.5l-8.8,5.3L258.4,449.4z M278.1,452.7l1.8-1l-1.8-1.3l2.3-1.3l-3.3-1.3l-1.8,1l-1.3-0.5l-1.8,1l1,0.7l-3.5,2
				l-1.5,1l-0.2,0.5l-0.3,0.5l0.5,0.7l1,0.8l2,1l2-1.3l-1-0.5l-0.3-0.2l-0.3-0.5l0.5-0.3l0.5-0.5l3.3-1.8L278.1,452.7z M207.9,405.5
				l-2.5-1.5l-12.9,7.3l2.8,1.5L207.9,405.5z M208.6,412.5L208.6,412.5l0.2,0.2l0.3,0.3v0.3v0.5l-0.7,0.5l-0.8,0.7l-1.3,0.5l-1,0.3
				h-1.3l-0.8-0.3l-0.7-0.7v-0.5l0.5-0.8l1-0.5l1-0.5l1.3-0.5h1L208.6,412.5z M212.2,412.5L212.2,412.5l-0.8-0.5l-0.8-0.7l-1.3-0.5
				l-1-0.2l-1.3-0.3l-1.3-0.3l-2.5,0.5l-1,0.2l-1,0.5l-1,0.7l-0.8,0.5l-0.2,0.7v0.8v0.8l0.5,0.5l0.5,0.8l1,0.5l2,0.8l2.3,0.5
				l2.5-0.3l1.3-0.5l1.3-0.5l1.5-1.3l0.2-0.7l0.3-0.5l-0.3-0.8L212.2,412.5z M211.4,417.8L211.4,417.8l-1.5,1.3l-0.5,0.5l-0.3,0.5
				l0.3,0.5l0.3,0.5l1,0.8l1,0.7h1.3h1.8l0.3,0.3l-1.3,0.8l2.5,1.3l8.6-5.1l-2.8-1.8l-5.1,3l-0.8,0.5h-1.3l-1-0.3l-0.5-0.5v-0.5
				l0.3-0.5l0.8-0.5l4.8-2.8l-2.8-1.5L211.4,417.8z M197.3,400.1L197.3,400.1l-1.8-0.2l-1.8-0.3l-1.5,0.3l-1.8,0.2l-1.8,0.5
				l-1.5,0.8l-1.3,0.7l-0.7,0.8l-0.5,1l-0.3,1l0.3,0.7l0.5,1l1,1l1.3,0.7l1.8,1l1.8,0.5l1.8-1.5l-1.3-0.3l-1.3-0.8l-1-0.5l-0.5-0.5
				l-0.3-0.5v-0.7v-0.5l0.3-0.5l0.7-0.7l0.7-0.5l1-0.5l1-0.3l2-0.2l2,0.2l1.8,0.8l1,0.7l1,0.8l2.5-1l-1-1l-1.3-1l-1.5-0.5
				L197.3,400.1z"/>
			<path class="st27" d="M459.9,439.6V434l-14.9-8.6h-10.1l-14.6,8.6v5.5l14.6,8.6h10.1L459.9,439.6z M444.9,448.1h-10.1l5.1,11.6
				L444.9,448.1z"/>
			<path class="st34" d="M420.2,434l-5,11.4l5-5.8V434z M434.8,448.1l-14.6-8.6l-5,5.8l24.7,14.4L434.8,448.1z"/>
			<path class="st35" d="M459.9,434v5.5l4.8,5.8L459.9,434z M464.6,445.4l-4.8-5.8l-14.9,8.6l-5,11.6L464.6,445.4z"/>
			<polyline class="st39" points="444.9,448.1 459.9,439.6 459.9,434 			"/>
			<polyline class="st39" points="420.2,434 420.2,439.6 434.8,448.1 444.9,448.1 439.9,459.8 			"/>
			<line class="st39" x1="464.6" y1="445.4" x2="459.9" y2="439.6"/>
			<polyline class="st39" points="415.2,445.4 420.2,439.6 420.2,434 			"/>
			<line class="st39" x1="439.9" y1="459.8" x2="434.8" y2="448.1"/>
			<path class="st33" d="M440.4,430l2.3-1.5l4.5,2.5l-2.5,1.5L440.4,430z M442.2,431.7l2.5,1.5l3.8-2.3l-5.8-3.3l-3.5,2.3l2.3,1.5
				L442.2,431.7z M442.2,431.7l-0.8-0.3l-1.5,1h0.5v0.3L442.2,431.7z M439.4,432.7l0.8,3.3l-5.6-0.3l-0.5-3.3L439.4,432.7z
				 M440.4,432.5h-0.5l-6.8-0.8l0.7,4.3l0.8,0.3l6.1,0.5h0.7l-0.3-0.5l-0.7-3.5V432.5z M446,438.8l-4.8-2.5l0.3,0.5h-0.7l4,2.3
				l-4.8,2.5l0.8,0.5L446,438.8z M426.8,437.8l2.5-1.5l4.5,2.5l-2.5,1.5L426.8,437.8z M429.3,435.5l-3.8,2.3l5.8,3.3l3.8-2.3
				l-2.5-1.5l-0.8-0.3L429.3,435.5z M432.6,437.3l2-1l-0.8-0.3l-2,1L432.6,437.3z M437.4,441.1l4.5,2.5l-2.5,1.3l-4.3-2.5
				L437.4,441.1z M440.7,442.1l-0.8-0.5l-2.3-1.3l-3.8,2l5.6,3.3l3.8-2L440.7,442.1z"/>
			<polyline class="st39" points="441.4,431.5 439.2,430 442.7,427.7 448.5,431 444.7,433.3 442.2,431.7 440.4,432.7 441.2,436.3 
				446,438.8 440.7,442.1 443.2,443.6 439.4,445.6 433.8,442.3 437.6,440.3 439.9,441.6 444.7,439 440.7,436.8 434.6,436.3 
				432.6,437.3 435.1,438.8 431.3,441.1 425.5,437.8 429.3,435.5 431.8,437 433.8,436 433.1,431.7 439.9,432.5 441.4,431.5 
				442.2,431.7 			"/>
			<polyline class="st39" points="439.9,432.5 440.4,432.5 440.4,432.7 			"/>
			<polyline class="st39" points="441.2,436.3 441.4,436.8 440.7,436.8 			"/>
			<polyline class="st39" points="434.1,432.5 434.6,435.8 440.2,436 439.4,432.7 434.1,432.5 			"/>
			<polyline class="st39" points="440.4,430 444.7,432.5 447.2,431 442.7,428.4 440.4,430 			"/>
			<polyline class="st39" points="426.8,437.8 431.3,440.3 433.8,438.8 429.3,436.3 426.8,437.8 			"/>
			<line class="st39" x1="434.6" y1="436.3" x2="433.8" y2="436"/>
			<line class="st39" x1="431.8" y1="437" x2="432.6" y2="437.3"/>
			<line class="st39" x1="439.9" y1="441.6" x2="440.7" y2="442.1"/>
			<polyline class="st39" points="435.1,442.3 439.4,444.9 441.9,443.6 437.4,441.1 435.1,442.3 			"/>
			<polygon class="st38" points="415.2,445.4 420.2,434 434.8,425.4 444.9,425.4 459.9,434 464.6,445.4 439.9,459.8 			"/>
			<path class="st40" d="M676,240v-57.3l-49.5,28.5v57.3L676,240z M577,182.7l49.5,28.5l49.5-28.5l-49.5-28.6L577,182.7z
				 M626.5,211.2L577,182.7V240l49.5,28.6V211.2z"/>
			<polyline class="st41" points="676,182.7 626.5,211.2 626.5,268.6 			"/>
			<line class="st41" x1="577" y1="182.7" x2="626.5" y2="211.2"/>
			<polygon class="st33" points="644.9,170.8 644.9,170.8 643.2,169.8 641.1,169 639.1,168.3 634.6,167 632,166.7 629.5,166.5 
				624.7,166.3 620.2,166.5 615.6,167.3 611.3,168.5 607.5,170.3 604.3,172.1 603,173.3 601.8,174.3 600.7,175.6 600,176.9 
				599,178.6 598.7,180.4 598.5,181.9 598.7,183.7 599,185 599.5,186.2 600.2,187.5 600.7,188.5 601.8,189.5 603,189.5 603.5,189.2 
				605.3,188.5 607,187.2 606.3,186.9 604.8,186 603.5,185.2 602.8,184.2 602.5,183.4 602.5,182.7 603,181.9 603.5,181.2 
				603.8,180.4 603.8,179.9 603.5,179.1 603.5,178.6 603.5,178.4 604,178.4 604.8,178.6 605.5,179.1 606,179.9 606,180.6 
				605.8,181.7 605.8,182.4 605.8,183.2 606,183.7 606.5,184.2 607.8,185 609.1,185.4 609.8,185.7 610.6,185.4 611.9,185.2 
				613.1,185 613.6,185 612.9,184.4 611.3,182.9 610.3,181.4 609.8,180.1 610.1,178.6 610.6,177.6 611.3,176.9 613.1,175.1 
				615.4,173.8 616.6,173.3 618.2,172.8 620.9,172.6 621.7,172.6 621.7,172.3 622.5,171.6 623.7,170.8 625,170.3 626.5,169.8 
				627,169.5 627.5,170 628.5,170.8 629.3,171.8 630,173.3 630.3,173.8 630.8,174.1 633.3,175.1 635.8,176.3 637.8,177.6 
				639.6,179.1 639.9,179.4 641.1,179.6 644.7,180.1 645.9,180.6 646.7,181.2 647.2,181.4 646.7,182.2 644.9,183.4 643.9,183.9 
				642.6,184.2 642.4,184.4 642.1,184.7 641.9,185.7 641.4,186.4 640.6,187.5 639.1,188.5 637.3,189.5 635.1,190.2 633.1,191 
				630.8,191.3 629,191.3 627.2,191 625.7,190.8 624.2,190.2 622.7,189.7 621.2,189.2 620.7,189 620.7,189.5 620.4,190 619.9,190.8 
				619.2,191.5 616.1,193 613.4,194.8 612.9,195.3 612.9,195.8 613.1,196 615.6,196.8 619.7,197.3 624.2,197.8 629,197.8 
				633.6,197.1 637.8,196 641.9,194.8 643.9,193.8 645.7,192.8 647.7,191.5 649.5,189.7 651,188.2 652,186.4 652.7,184.4 653,182.7 
				653,180.6 652.5,178.6 651.5,176.9 650.2,175.1 648.7,173.6 646.7,171.8 			"/>
			<polygon class="st42" points="577,240 577,182.7 626.5,154.1 676,182.7 676,240 626.5,268.6 			"/>
			<path class="st33" d="M582.1,249.9l-2.3,1.5l3.3,1.7l-9.8,5.8l2.8,1.5l9.9-5.5l3.3,1.7l2.3-1.3L582.1,249.9z M580.5,249.1
				l-2.8-1.5l-12.1,7.1l2.8,1.5L580.5,249.1z M610.8,278.4L610.8,278.4l-1-0.5l3.5-2l1,0.5l0.7,0.8l0.5,0.5v0.5l-0.5,0.7l-1,0.3
				h-1.3l-1-0.3L610.8,278.4z M618.2,273.1L618.2,273.1l1.3,0.8l0.8,0.5l0.3,0.5v0.5l-0.5,0.3l-0.7,0.3h-1h-1l-1-0.5l-0.7-0.5
				L618.2,273.1z M618.4,277.4L618.4,277.4l1.5,0.3h1l1.3-0.3l0.7-0.3l0.8-0.5l0.3-0.5l0.3-0.8l-0.3-0.5l-1-1.3l-2-1.3l-3.8-1.8
				l-11.9,6.8l2.8,1.8l3.3,1.5l1.5,0.5l1,0.3h1.3l0.8-0.3l1-0.3l1-0.3l0.5-0.5l0.3-0.3l0.5-0.8l-0.3-1L618.4,277.4z M602.8,262
				l-2.8-1.5l-4.5,2.8l-4.6-2.8l4.6-2.8l-2.5-1.5l-12.1,7.1l2.5,1.5l5.1-2.8l4.5,2.5l-5,3l2.8,1.5L602.8,262z M605.3,271.6
				L605.3,271.6l-1.5,0.8l-1.3,0.3H601l-1-0.5l-0.7-0.7v-0.8l0.2-0.3l0.3-0.5l1.3-0.7l6.8-4l-2.5-1.8l-6.8,4.1l-2.3,1.5l-0.5,0.7
				l-0.3,0.8l0.3,0.8l0.2,0.7l1.8,1.5l2.5,1l1.3,0.3h1.3h1.3l1.5-0.5l2.8-1l6.8-4l-2.8-1.5L605.3,271.6z M556,247.3L556,247.3l0.3,1
				l0.8,0.8l0.8,1l1.5,1l2,1l2.8,1l6.3-3.8l-4.3-2.5l-2.3,1.3l1.8,1l-2.5,1.5l-1.5-0.8l-0.7-0.5l-0.5-0.5l-0.3-0.5v-0.8v-0.5
				l0.3-0.5l0.8-0.8l0.7-0.5l1-0.5l1-0.3l2-0.3l2,0.3l1.8,0.8l1.5,1l1,1l2.8-1l-1-1l-1.8-1.3l-1.7-0.7l-1.5-0.5l-1.7-0.5h-1.8h-1.8
				l-1.5,0.3l-1.8,0.5l-1.5,0.7l-1.3,0.8l-0.8,1l-0.5,0.7L556,247.3z"/>
			<polygon class="st43" points="485.1,532.8 528,508 570.9,532.8 571.4,531.8 528.3,506.8 527.8,506.8 484.6,531.8 			"/>
			<polygon class="st44" points="528,513.1 528,513.1 526.8,513.1 525.7,513.6 517.2,518.6 516.7,519.1 516.4,519.9 516.7,520.4 
				517.2,521.2 525.7,526 526.8,526.5 528,526.5 529,526.5 530,526 538.9,521.2 539.4,520.4 539.6,519.9 539.4,519.1 538.9,518.6 
				530,513.6 529,513.1 			"/>
			<path class="st45" d="M528.5,557.3v-25h-1v25H528.5z M484.6,507.8l43.2,25h0.5l43.2-25l-0.5-0.8L528,531.8L485.1,507L484.6,507.8
				z"/>
			<polygon class="st46" points="528,482.5 506.8,494.6 527.8,506.8 528,506.8 528.3,506.8 549.5,519.1 570.7,507 563.4,503 
				551.7,506.2 551.5,506.2 551.2,506 551,505.7 551.2,505.5 556.6,498.9 			"/>
			<polygon class="st47" points="506.8,494.6 500,498.7 503.5,503 503.8,503.2 503.5,503.5 503.5,503.7 503.3,503.7 495.2,501.4 
				485.3,507 506.3,519.1 527.8,506.8 			"/>
			<polygon class="st48" points="500,498.7 495.2,501.4 503.3,503.7 503.5,503.7 503.5,503.5 503.8,503.2 503.5,503 			"/>
			<polygon class="st49" points="557.3,499.4 553,504.7 562.4,502.2 			"/>
			<polygon class="st49" points="556.6,498.9 551.2,505.5 551,505.7 551.2,506 551.5,506.2 551.7,506.2 563.4,503 562.4,502.2 
				553,504.7 557.3,499.4 			"/>
			<path class="st46" d="M528,508l-20.5,11.9l20.5,11.9l20.5-11.9L528,508z M516.4,519.9L516.4,519.9l0.2-0.8l0.5-0.5l8.6-5l1-0.5
				h1.3h1l1,0.5l8.8,5l0.5,0.5l0.3,0.8l-0.3,0.5l-0.5,0.8L530,526l-1,0.5h-1h-1.3l-1-0.5l-8.6-4.8l-0.5-0.8L516.4,519.9z"/>
			<polygon class="st47" points="528,508 507.3,519.9 507.6,519.9 			"/>
			<polygon class="st50" points="528,506.8 528,506.8 527.8,506.8 506.3,519.1 507.3,519.9 528,508 548.5,519.9 549.5,519.1 
				528.3,506.8 			"/>
			<polygon class="st51" points="570.7,507 549.5,519.1 548.5,519.9 528,531.8 507.6,519.9 507.3,519.9 506.3,519.1 485.3,507 
				484.8,507.3 528,532.3 571.2,507.3 			"/>
			<path class="st52" d="M571.2,507.3 M571.2,508l-20.7,11.9l20.7,11.9V508z M549.5,520.4l-21,12.1v24.2l42.2-24.2L549.5,520.4z
				 M571.2,532.3"/>
			<polygon class="st53" points="550.5,519.9 549.5,520.4 570.7,532.5 571.2,532.3 571.2,531.8 			"/>
			<polygon class="st54" points="571.2,507.3 528,532.3 528,557.3 528.5,556.8 528.5,532.5 549.5,520.4 550.5,519.9 571.2,508 			
				"/>
			<polygon class="st55" points="484.8,508 484.8,520.4 490.4,523.7 490.9,524.2 490.9,524.4 490.9,524.9 490.1,525.4 489.9,525.4 
				489.4,525.4 484.8,522.7 484.8,531.8 505.3,519.9 			"/>
			<polygon class="st56" points="484.8,520.4 484.8,522.7 489.4,525.4 489.9,525.4 490.1,525.4 490.9,524.9 490.9,524.4 
				490.9,524.2 490.4,523.7 			"/>
			<path class="st57" d="M484.8,520.4L484.8,520.4l5.5,3.3l0.5,0.5v0.3v-0.3l-0.5-0.5L484.8,520.4z M489.4,525.4 M490.1,525.4
				 M490.1,525.4L490.1,525.4h-0.3H490.1z M489.9,525.4"/>
			<polygon class="st58" points="506.6,520.4 485.6,532.5 485.3,532.5 527.5,556.8 527.5,532.5 			"/>
			<polygon class="st55" points="506.3,520.4 485.6,532.5 506.6,520.4 			"/>
			<polygon class="st59" points="505.3,519.9 484.8,531.8 484.8,532.3 485.3,532.5 485.6,532.5 506.3,520.4 			"/>
			<polygon class="st60" points="484.8,507.3 484.8,507.3 484.8,508 505.3,519.9 506.3,520.4 506.6,520.4 527.5,532.5 527.5,556.8 
				528,557.3 528,532.3 			"/>
			<polygon class="st61" points="484.8,507.3 484.8,507.3 528,532.3 			"/>
			<polygon class="st37" points="484.8,532.3 484.8,507.3 528,482.5 571.2,507.3 571.2,532.3 528,557.3 			"/>
		</g>
	</g>
	<text transform="matrix(1 0 0 1 388.8377 103.8486)" class="st62 st63 st64">Hi</text>
	<text transform="matrix(1 0 0 1 414.1042 103.8486)" class="st62 st63 st64">gh Level Diagram</text>
	<text transform="matrix(1 0 0 1 592.851 744.8661)" class="st62 st63 st64"> </text>
	<text transform="matrix(1 0 0 1 50.1754 103.8479)"><tspan x="0" y="0" class="st65 st63 st2">A</tspan><tspan x="19.4" y="0" class="st65 st63 st2">r</tspan><tspan x="31.8" y="0" class="st65 st63 st2">c</tspan><tspan x="46.5" y="0" class="st65 st63 st2">h</tspan><tspan x="64.3" y="0" class="st65 st63 st2">i</tspan><tspan x="72.8" y="0" class="st65 st63 st2">t</tspan><tspan x="84.2" y="0" class="st65 st63 st2">ec</tspan><tspan x="115.5" y="0" class="st65 st63 st2">t</tspan><tspan x="126.9" y="0" class="st65 st63 st2">u</tspan><tspan x="144.7" y="0" class="st65 st63 st2">r</tspan><tspan x="157.1" y="0" class="st65 st63 st2">e</tspan><tspan x="173.6" y="0" class="st65 st63 st2"> </tspan><tspan x="182.2" y="0" class="st65 st63 st2">P</tspan><tspan x="200.5" y="0" class="st65 st63 st2">r</tspan><tspan x="212.9" y="0" class="st65 st63 st2">o</tspan><tspan x="230" y="0" class="st65 st63 st2">p</tspan><tspan x="247.5" y="0" class="st65 st63 st2">o</tspan><tspan x="264.6" y="0" class="st65 st63 st2">sa</tspan><tspan x="296.1" y="0" class="st65 st63 st2">l </tspan><tspan x="313.2" y="0" class="st65 st63 st2">:</tspan><tspan x="323.2" y="0" class="st65 st63 st2"> </tspan></text>
</g>
</svg>
