<?xml version="1.0" encoding="utf-8"?>
<!-- Generator: Adobe Illustrator 19.1.0, SVG Export Plug-In . SVG Version: 6.00 Build 0)  -->
<svg version="1.1" id="Layer_1" xmlns="http://www.w3.org/2000/svg" xmlns:xlink="http://www.w3.org/1999/xlink" x="0px" y="0px"
	 viewBox="0 0 180 180" style="enable-background:new 0 0 180 180;" xml:space="preserve">
<style type="text/css">
	.st0{fill:#E92426;}
</style>
<path d="M52.7,148.3l-1.2-7.2c-0.3-2.1-0.8-5.3-1.1-7.5h-0.1c-0.4,2.3-0.9,5.6-1.2,7.6l-1.3,7.2H52.7z M47.1,152.9l-1.6,8h-5.8
	l7.3-33.1h7.1l6.6,33.1h-5.8l-1.5-8H47.1z"/>
<path d="M73.9,146.1c0-0.4,0-1-0.1-1.4c-0.2-1.6-1.1-3.1-2.5-3.1c-2.4,0-3.3,3.5-3.3,7.5c0,4.7,1.3,7.3,3.2,7.3
	c0.9,0,1.9-0.5,2.5-2.4c0.1-0.4,0.2-0.9,0.2-1.5V146.1z M79.9,126.9V154c0,2.2,0.1,4.8,0.2,6.9h-5.2l-0.3-2.8h-0.1
	c-0.9,1.7-2.8,3.2-5,3.2c-4.9,0-7.4-5.5-7.4-12.3c0-8.4,3.7-12.5,7.6-12.5c2.1,0,3.4,1,4.1,2.5h0.1v-12.1H79.9z"/>
<path d="M92.3,156.7c2.3,0,2.8-4.3,2.8-7.9c0-3.4-0.6-7.8-2.9-7.8c-2.5,0-3,4.4-3,7.8C89.2,152.9,89.8,156.7,92.3,156.7L92.3,156.7z
	 M92.2,161.3c-5.5,0-9-4.4-9-12.3c0-8.6,4.4-12.5,9.1-12.5c5.4,0,8.8,4.6,8.8,12.3C101.2,158.7,95.8,161.3,92.2,161.3L92.2,161.3z"
	/>
<path d="M110.5,152.3c0,0.6,0.1,1.2,0.2,1.5c0.6,2,1.6,2.5,2.4,2.5c2.3,0,3.2-2.9,3.2-7.6c0-4.3-1-7.2-3.3-7.2
	c-1.1,0-2.1,1.2-2.4,2.6c-0.1,0.4-0.2,1.1-0.2,1.5V152.3z M104.5,126.9h6v12.5h0.1c1.2-1.8,2.7-2.9,5-2.9c4.5,0,6.8,5.1,6.8,11.8
	c0,8.5-3.4,13-7.7,13c-2.1,0-3.5-0.9-4.7-3.3h-0.1l-0.3,2.9h-5.1c0.1-2,0.2-4.7,0.2-6.9V126.9z"/>
<path d="M136.7,146.6c0-3.4-1-5.7-2.8-5.7c-2.2,0-3.1,3.2-3.1,5.7H136.7z M130.7,150.8c0.1,4.3,2.4,5.8,5.2,5.8
	c1.8,0,3.3-0.4,4.5-0.8l0.8,4.3c-1.6,0.7-4,1.1-6.4,1.1c-6.4,0-9.9-4.4-9.9-11.9c0-8,4.1-12.9,9.4-12.9c5.1,0,8,4.3,8,11.2
	c0,1.6-0.1,2.5-0.2,3.2L130.7,150.8z"/>
<polygon class="st0" points="104,18.6 142.2,18.6 142.2,110 "/>
<polygon class="st0" points="79.8,18.6 41.5,18.6 41.5,110 "/>
<polygon class="st0" points="90.5,52.3 114.8,110 98.9,110 91.6,91.6 73.8,91.6 "/>
</svg>
