<?xml version="1.0" encoding="utf-8"?>
<!-- Generator: Adobe Illustrator 19.1.0, SVG Export Plug-In . SVG Version: 6.00 Build 0)  -->
<svg version="1.1" id="Layer_1" xmlns="http://www.w3.org/2000/svg" xmlns:xlink="http://www.w3.org/1999/xlink" x="0px" y="0px"
	 viewBox="0 0 180 180" style="enable-background:new 0 0 180 180;" xml:space="preserve">
<style type="text/css">
	.st0{fill:#54B948;}
</style>
<g id="logo_spiral9_bug" transform="matrix( 1, 0, 0, 1, 0,0) ">
	<g transform="matrix( 1, 0, 0, 1, 0,0) ">
		<g>
			<g id="logo_spiral9_bug_0_Layer0_0_FILL">
				<path class="st0" d="M150.9,66.1c0-0.9,0-1.6-0.1-2.4c-0.2-1.9-0.9-3.7-1.6-5.4c-1-2.4-2.6-4.5-4.6-6.2c-2.1-1.7-4.4-2.9-7-3.7
					c-1.6-0.5-3-0.9-4.5-0.9H94.2c-0.6,0-0.9,0-1.5-0.1c-0.9-0.4-1.6-0.9-2.4-1.5c-0.9-0.9-1.5-2.4-1.6-3.7v-0.2l3.7-13.2
					c0.1-0.2,0.1-0.5,0.1-0.9c0-0.9-0.4-1.7-0.9-2.4c-0.7-0.7-1.4-1-2.4-1c-0.6,0-1,0.1-1.5,0.4L40,49h-0.1c-2.2,0.9-4,2.4-5.5,3.9
					c-1.6,1.6-2.7,3.5-3.9,5.5c-0.7,1.7-1.1,3.5-1.5,5.4c-0.1,0.5-0.1,0.9-0.1,1.4c0,0.2,0,0.6,0,0.9v47.8c0,2.7,0.6,5.4,1.7,7.7
					c1,2.4,2.6,4.4,4.6,6.2c2.1,1.7,4.4,3,7,3.7c1.5,0.5,3.1,0.7,4.5,0.7h38.8c1.4,0.1,2.6,0.7,3.9,1.7c0.9,0.9,1.5,2.2,1.6,3.7v0.4
					l-3.7,13.2c-0.1,0.2-0.1,0.6-0.1,0.9c0,0.9,0.4,1.7,1,2.4c0.7,0.7,1.4,1,2.4,1c0.6,0,1-0.1,1.5-0.5l48-24.1v-0.1h0.1
					c2.1-0.9,3.9-2.2,5.5-3.7c1.6-1.6,2.7-3.5,3.9-5.6c0.9-2.1,1.5-4.1,1.6-6.6c0-0.2,0-0.6,0-0.9V66.3 M129.4,66.6
					c1.4,0,2.2,0.9,2.2,2.2v42.5c0,1.4-0.9,2.2-2.2,2.2H50.1c-1.4,0-2.2-0.9-2.2-2.2V68.8c0-1.4,0.9-2.2,2.2-2.2H129.4z"/>
			</g>
		</g>
	</g>
</g>
</svg>
