<?xml version="1.0" encoding="utf-8"?>
<!-- Generator: Adobe Illustrator 19.1.0, SVG Export Plug-In . SVG Version: 6.00 Build 0)  -->
<svg version="1.1" id="Layer_1" xmlns="http://www.w3.org/2000/svg" xmlns:xlink="http://www.w3.org/1999/xlink" x="0px" y="0px"
	 viewBox="0 0 180 180" style="enable-background:new 0 0 180 180;" xml:space="preserve">
<style type="text/css">
	.st0{fill:#C42339;}
	.st1{fill:#1B576A;}
</style>
<g>
	<rect x="53.2" y="99.5" class="st0" width="7.4" height="29.5"/>
	<path class="st0" d="M120.6,107.9c-0.3-0.2-2.7-1.6-6.3-1.6c-4.8,0-8.1,3.4-8.1,7.9c0,4.4,3.2,7.9,8.1,7.9c3.5,0,5.9-1.4,6.3-1.6
		v7.9c-0.9,0.3-3.5,1-6.8,1c-8.4,0-15.7-5.8-15.7-15.3c0-8.8,6.6-15.3,15.7-15.3c3.5,0,6.1,0.8,6.8,1.1V107.9z"/>
	<path class="st0" d="M42.9,107.9c-0.3-0.2-2.7-1.6-6.3-1.6c-4.8,0-8.2,3.4-8.2,7.9c0,4.4,3.2,7.9,8.2,7.9c3.5,0,5.9-1.4,6.3-1.6
		v7.9c-0.9,0.3-3.5,1-6.8,1c-8.4,0-15.7-5.8-15.7-15.3c0-8.8,6.6-15.3,15.7-15.3c3.5,0,6.1,0.8,6.8,1.1V107.9z"/>
	<path class="st0" d="M159.6,114.2c0,8.4-6.5,15.3-15.6,15.3c-9.1,0-15.6-6.8-15.6-15.3c0-8.4,6.5-15.3,15.6-15.3
		C153,98.9,159.6,105.8,159.6,114.2z M144,106.4c-4.4,0-7.7,3.5-7.7,7.8c0,4.3,3.3,7.8,7.7,7.8c4.4,0,7.7-3.5,7.7-7.8
		C151.7,109.9,148.4,106.4,144,106.4z"/>
	<path class="st0" d="M88.8,106.2c-0.1,0-3.2-0.9-5.8-0.9c-3,0-4.6,1-4.6,2.4c0,1.8,2.2,2.4,3.4,2.8l2.1,0.6c4.8,1.5,7,4.8,7,8.4
		c0,7.4-6.5,9.9-12.2,9.9c-4,0-7.7-0.7-8-0.8v-6.8c0.7,0.2,3.8,1.1,7,1.1c3.7,0,5.4-1.1,5.4-2.8c0-1.5-1.5-2.4-3.3-2.9
		c-0.4-0.1-1.1-0.4-1.6-0.5c-4.2-1.3-7.6-3.7-7.6-8.6c0-5.5,4.1-9.2,11-9.2c3.6,0,7,0.9,7.3,0.9V106.2z"/>
	<path class="st1" d="M12.6,67.8c0-2-1.7-3.7-3.7-3.7c-2,0-3.7,1.6-3.7,3.7v7.7c0,2,1.7,3.7,3.7,3.7c2,0,3.7-1.7,3.7-3.7V67.8z"/>
	<path class="st1" d="M32.8,57.6c0-2-1.7-3.7-3.7-3.7c-2,0-3.7,1.7-3.7,3.7v17.9c0,2,1.7,3.7,3.7,3.7c2,0,3.7-1.7,3.7-3.7V57.6z"/>
	<path class="st1" d="M53.1,43.7c0-2-1.7-3.7-3.7-3.7c-2,0-3.7,1.6-3.7,3.7v39.1c0,2,1.7,3.7,3.7,3.7c2,0,3.7-1.6,3.7-3.7V43.7z"/>
	<path class="st1" d="M73.4,57.6c0-2-1.6-3.7-3.7-3.7c-2,0-3.7,1.7-3.7,3.7v17.9c0,2,1.7,3.7,3.7,3.7c2,0,3.7-1.7,3.7-3.7V57.6z"/>
	<path class="st1" d="M93.7,67.8c0-2-1.7-3.7-3.7-3.7c-2,0-3.7,1.6-3.7,3.7v7.7c0,2,1.6,3.7,3.7,3.7c2,0,3.7-1.7,3.7-3.7V67.8z"/>
	<path class="st1" d="M114,57.6c0-2-1.6-3.7-3.7-3.7c-2,0-3.7,1.7-3.7,3.7v17.9c0,2,1.6,3.7,3.7,3.7c2,0,3.7-1.7,3.7-3.7V57.6z"/>
	<path class="st1" d="M134.3,43.7c0-2-1.6-3.7-3.7-3.7c-2,0-3.7,1.6-3.7,3.7v39.1c0,2,1.6,3.7,3.7,3.7c2,0,3.7-1.6,3.7-3.7V43.7z"/>
	<path class="st1" d="M154.6,57.6c0-2-1.6-3.7-3.7-3.7c-2,0-3.7,1.7-3.7,3.7v17.9c0,2,1.6,3.7,3.7,3.7c2.1,0,3.7-1.7,3.7-3.7V57.6z"
		/>
	<path class="st1" d="M174.8,67.8c0-2-1.6-3.7-3.7-3.7c-2,0-3.7,1.6-3.7,3.7v7.7c0,2,1.6,3.7,3.7,3.7c2,0,3.7-1.7,3.7-3.7V67.8z"/>
</g>
</svg>
