<?xml version="1.0" encoding="utf-8"?>
<!-- Generator: Adobe Illustrator 19.1.0, SVG Export Plug-In . SVG Version: 6.00 Build 0)  -->
<svg version="1.1" id="_x37__x5F_Final" xmlns="http://www.w3.org/2000/svg" xmlns:xlink="http://www.w3.org/1999/xlink" x="0px"
	 y="0px" viewBox="0 180 180 180" style="enable-background:new 0 180 180 180;" xml:space="preserve">
<style type="text/css">
	.st0{fill:#FFFFFF;}
	.st1{fill:#1A2857;}
</style>
<g>
	<g>
		<path class="st0" d="M153.9,236.6c8.1-32.3-14-35.4-22.7-34.2c-0.3,0-0.6,0.1-0.9,0.1c-10.8-9.3-23.1-14.7-37.3-14.7
			c-43.5,0-72.7,36.9-72.7,82.2s29.2,82.2,72.7,82.2c36.7,0,66.6-36.9,66.6-82.2C159.6,258.1,157.6,246.8,153.9,236.6z"/>
	</g>
	<path class="st1" d="M148.3,230.2L148.3,230.2c-1.8-3.9-3.6-6.1-3.9-6.4c-0.5-0.3-0.9-0.1-1.2,0.3c-12.4,18.4-19,38.4-22.1,55.4
		c-0.7,3.9-1.4,8-1.8,11.7c-0.3,3.6-1,2.8-0.9,0.2c0.2-4,0.3-6.4,0.7-10.1c0-0.1,0.5-4.5,0.7-5.8c4.7-34.9,18.6-53.5,18.6-53.5
		s0-0.1,0.1-0.1c0.3-0.5,0.1-1.3-0.6-1.4c-1.9-0.5-4.6-0.7-6.5-0.7c-2.7,0-5.3,0.3-8,0.8c-21.6,4.3-40.8,25.4-48.3,32.5
		c-5.1,4.8-10,9.8-14.7,15.1c-4.3,4.8-8.4,9.8-12.2,14.9c-0.8,1.1-1.6,2.2-2.4,3.2c-0.3,0.4-3.3,4.4-6.8,9.1
		c-2.2-8-3.4-16.6-3.4-25.5c0-41.6,26.1-75.4,58.3-75.4c11.2,0,21.6,4.1,30.5,11.2c-0.5,0.1-0.9,0.3-1.3,0.4l-0.2,0.1
		c-0.1,0-0.2,0.1-0.3,0.1l-0.7,0.2c-12.4,3.8-26.1,11.7-39.3,23.5c-1.1-0.3-2.3-0.5-3.5-0.6c-0.2,0-0.3,0-0.5,0
		c-7-0.2-15,3.7-19.8,7.6c-1.7,1.4-2.5,2.7-2.9,3.8v5.5v0.3c0.9-0.8,3.7-3.7,7-5.8c4.2-2.7,9-4.4,13.4-4.7c-2.2,2.2-4.4,4.5-6.5,6.9
		c-6.4,2.2-11.5,6.4-13.9,9.4v-6h-0.1c-2.3,0.7-8.2,4.4-9,7.2c-0.2,0.8-0.3,2.5-0.3,3.4c0,0.2,0,0.4,0,0.5c0,0.3,0,2.3,0,2.3
		s4.3-6.1,9.4-7.5v5.5c-3.4,1.2-7.9,5.5-8.7,7c-0.2,0.4,0.1,6.2,0.2,9.1c-2.6,4.4-5,9.1-7.3,13.9c3.2-4.6,6.6-9.1,9.4-12.7
		c3.3-4.4,6.5-8.8,9.8-13.2c1.5-1.9,2.9-3.9,4.5-5.8c0.5-0.7,1.1-1.4,1.6-2c3.7-4.5,7.7-8.7,11.8-12.8c1.7-1.7,3.5-3.3,5.3-4.9
		c0.9-0.8,1.7-1.5,2.6-2.3c0.7-0.6,1.4-1.2,2-1.7c3-2.5,6-4.9,9.1-7.3c3.2-2.5,6.6-4.8,10.1-6.9c6.2-3.8,13-6.6,20.1-8.3
		c0.4-0.1,0.8-0.2,1.3-0.3c1.1-0.2,2.2-0.4,3.4-0.6c5.3-0.7,10.9-0.3,15.5,2.5c1.4,0.8,2.6,1.9,3.6,3.1c0.7,0.8,1.3,1.8,1.9,2.8
		c1.2,2.3,1.9,5,2,8.2c0,1.1,0.1,2,0.1,2.9c0.4-2.1,0.5-4.3,0.4-6.3c-0.2-2.7-1.1-5.8-2.3-8.2c-3.9-7.8-13.1-10.7-21.3-9.5
		c-0.3,0-0.6,0.1-0.8,0.1c-10.2-9.1-22.6-14.5-36-14.5c-41,0-68.5,35.9-68.5,79.9s27.5,79.9,68.5,79.9c34.6,0,62.8-35.9,62.8-79.9
		C156.8,255.5,153.6,241.9,148.3,230.2z M60.9,332.3c4.2,1,8.3,1.7,11.8,2c9.1,0.7,22-1.3,31.9,0.4c4.2,0.7,7.6,3.2,10,5.7
		c-6.5,3.2-13.5,5-20.9,5C81.8,345.4,70.4,340.5,60.9,332.3z M126.8,323.7c-0.7-8.5-0.7-17.1,0.1-25.6c1.5-17.3,6.3-34.4,16.9-48.5
		c0.2-0.3,0.5-0.7,1-1.2l0,0l0.3-0.4c0,0-0.3,0.3,2.7-3.4c0.4-0.6,0.4-0.5,0.8-1.1l0,0c2.4,8.2,3.7,17.1,3.7,26.4
		c0,27.2-11.2,51.1-27.9,64.4c-5.6-5.6-11.8-7.5-23.2-7.6c-10.9-0.1-22.5,3.3-38.2,1.6c-2.2-0.2-4.8-0.9-7.6-1.8
		c-1.3-1.5-2.6-3.1-3.8-4.8c3.2,1.1,6.4,1.9,9.3,2.1c17.4,1.5,30.9-2.3,42.2-2.4c11.5-0.1,18.3,1.7,24,6.1
		C126.9,326.3,126.8,325,126.8,323.7"/>
</g>
</svg>
