<?xml version="1.0" encoding="utf-8"?>
<!-- Generator: Adobe Illustrator 19.1.0, SVG Export Plug-In . SVG Version: 6.00 Build 0)  -->
<svg version="1.1" id="Layer_1" xmlns="http://www.w3.org/2000/svg" xmlns:xlink="http://www.w3.org/1999/xlink" x="0px" y="0px"
	 viewBox="0 180 180 180" style="enable-background:new 0 180 180 180;" xml:space="preserve">
<style type="text/css">
	.st0{fill:#027BC1;}
	.st1{fill:#FFFFFF;}
</style>
<g transform="matrix( 1, 0, 0, 1, 12,11.5) ">
	<g transform="matrix( 1, 0, 0, 1, 0,0) ">
		<g>
			<g id="logo_beachbody_0_Layer0_0_FILL">
				<path class="st0" d="M35.7,324.9C48.1,333,62.2,337,77.9,337c21.7,0,40.2-7.7,55.5-23c13.4-13.4,21-29.3,22.6-47.5
					c-3.4,4.4-8.7,9-15.8,13.8C119.4,294.5,84.5,309.4,35.7,324.9 M126.5,264.9c-0.8-4.2-6.7-7.5-17.6-9.9
					c-7.7-1.7-19.5-3.3-35.5-4.6c-20.8-1.7-32.7-2.8-35.8-3.2c-11.2-1.4-17.4-3.4-18.5-5.8c-1.4-3,1-6.8,7.1-11.2
					c3.5-2.5,9.3-6.3,17.5-11.3c6-4.3,8.3-7.7,6.7-10.3c-2.1-3.4-10.4-6.2-25.1-8.3c-1,0.9-1.9,1.8-2.9,2.8
					c-15.3,15.3-23,33.8-23,55.5s7.7,40.2,23,55.5c3.3,3.3,6.8,6.2,10.4,8.9c34.5-14,59-25.5,73.6-34.6
					C121,279.3,127.7,271.5,126.5,264.9 M146.1,246c4.2,0.9,7.5,2,9.9,3.4c-1.9-17.8-9.4-33.3-22.6-46.4c-15.3-15.3-33.8-23-55.5-23
					c-18.7,0-35,5.7-49,17.1c16.1,2,27.8,4,35,6.1c8.4,2.5,12.2,5.4,11.4,8.8c-0.6,2.3-3.8,5.4-9.7,9.1c-6.4,3.7-10.1,6-11.3,6.9
					c-3.2,2.3-5.3,4.1-6.3,5.5c-1.1,1.5-1.3,3-0.7,4.5c1.2,2.8,8.1,4.5,20.8,5.1c1,0.1,14.3,0.2,40,0.3
					C125.6,243.6,138.2,244.4,146.1,246z"/>
				<path class="st1" d="M156,249.4c-2.4-1.4-5.7-2.5-9.9-3.4c-7.9-1.6-20.5-2.4-37.8-2.6c-25.7-0.2-39-0.3-40-0.3
					c-12.7-0.6-19.6-2.3-20.8-5.1c-0.6-1.5-0.4-3,0.7-4.5c1-1.4,3.1-3.2,6.3-5.5c1.2-0.8,4.9-3.1,11.3-6.9c5.9-3.8,9.1-6.8,9.7-9.1
					c0.8-3.4-3-6.3-11.4-8.8c-7.2-2.1-18.9-4.1-35-6.1c-1.2,1-2.4,2-3.6,3.1c14.6,2.1,23,4.9,25.1,8.3c1.6,2.6-0.7,6-6.7,10.3
					c-8.1,5-14,8.8-17.5,11.3c-6.2,4.5-8.5,8.2-7.1,11.2c1.1,2.4,7.3,4.4,18.5,5.8c3.1,0.4,15.1,1.4,35.8,3.2
					c16,1.3,27.8,2.9,35.5,4.6c10.9,2.4,16.8,5.7,17.6,9.9c1.3,6.6-5.4,14.4-20.1,23.4c-14.6,9-39.1,20.5-73.6,34.6
					c1,0.7,1.9,1.4,2.9,2c48.8-15.5,83.6-30.4,104.5-44.6c7.1-4.8,12.3-9.4,15.8-13.8c0.2-2.6,0.4-5.3,0.4-8
					C156.4,255.4,156.2,252.4,156,249.4z"/>
			</g>
		</g>
	</g>
</g>
</svg>
