<?xml version="1.0" encoding="utf-8"?>
<!-- Generator: Adobe Illustrator 20.1.0, SVG Export Plug-In . SVG Version: 6.00 Build 0)  -->
<svg version="1.1" id="Layer_1" xmlns="http://www.w3.org/2000/svg" xmlns:xlink="http://www.w3.org/1999/xlink" x="0px" y="0px"
	 viewBox="0 0 175 100" style="enable-background:new 0 0 175 100;" xml:space="preserve">
<g transform="matrix( 1, 0, 0, 1, 8.95,5.55) ">
	<g transform="matrix( 1, 0, 0, 1, 0,0) ">
		<g>
			<g id="logo_live_area_square_0_Layer1_0_FILL">
				<path d="M13.8,0H0v43.4h24.4V31c-1.5,0.3-3.4,0.5-5.7,0.5h-4.9V0 M40.2,0H26.4v43.4h13.8V0 M104.8,11.9L112.3,0H68.8L56,21.7V0
					H42.2v43.4H57l18.4-29.8v29.8h9.9l7.4-11.9h-4.1V27h6.9l6.8-11H88.7v-4.1H104.8z"/>
			</g>
		</g>
	</g>
	<g transform="matrix( 1, 0, 0, 1, -72.55,45.55) ">
		<g>
			<g id="logo_live_area_square_0_Layer1_1_FILL">
				<path d="M129.4,43.4V0h-14.7L87.8,43.4H129.4 M115.6,31.5l-5.7,0l5.7-9.8V31.5 M229.6,43.4V0H215l-19.6,31.5h-15.4V27h13.1V16
					h-13.1v-4.1h15.5V0h-28.7v33.7c-0.7-2.2-1.7-4.2-3.1-6c-1.4-1.7-2.9-3-4.7-3.9c1.2-1.3,2.1-2.8,2.8-4.5c0.7-1.7,1-3.4,1-5
					c0-4.8-1.6-8.5-4.9-10.9c-3-2.3-7.3-3.4-12.8-3.4h-13.8v43.4h13.8V30.8c2.7,0.6,4.8,1.8,6.2,3.6c1.7,2.2,2.3,5.3,1.8,9.1H229.6
					 M215.9,21.8v9.7l-5.7,0L215.9,21.8 M148.7,12.2c1.2,0.7,1.8,1.8,1.8,3.2s-0.6,2.6-1.8,3.2c-0.9,0.5-2,0.8-3.4,0.8v-8.1
					C146.7,11.4,147.8,11.7,148.7,12.2z"/>
			</g>
		</g>
	</g>
	<g transform="matrix( 1, 0, 0, 1, 0,0) ">
		<g>
			<g id="logo_live_area_square_0_Layer0_0_FILL">
				<path d="M143.4,10.1c-0.1-0.1-0.1-0.2-0.2-0.3c-1-1.7-2.4-3.3-4.1-4.7c-2.3-1.9-4.7-3.1-7.4-3.8c-2.6-0.7-5.4-0.8-8.4-0.4
					c-3.2,0.5-6,1.6-8.4,3.3c-2.4,1.7-4.3,4-5.8,6.9c-1.3,2.5-2,5-2.2,7.7c-0.1,2.6,0.3,5.2,1.3,7.9c1.1,2.8,2.6,5.1,4.5,7
					c2,1.9,4.4,3.4,7.2,4.5c3.9,1.4,7.9,1.7,12.1,0.8c0.9-0.2,1.7-0.2,2.4,0c0.7,0.2,1.4,0.6,2.1,1.2c0.4,0.3,0.5,0.7,0.1,1
					c-0.4,0.5-0.8,0.8-1,1c-0.4,0.3-0.9,0.4-1.4,0.4c-0.1,0-0.2,0-0.3,0s-0.2,0.1-0.2,0.1c-0.1,0.1-0.1,0.2-0.1,0.2
					c0,0.2,0.1,0.3,0.4,0.3c0.3,0,0.5,0.1,0.6,0.2c0,0.1-0.1,0.3-0.2,0.7c-0.1,0.1-0.2,0.2-0.3,0.5c-0.1,0.2-0.1,0.3,0.1,0.4
					s0.3,0.1,0.5,0c0.2-0.2,0.3-0.3,0.3-0.5c0.2-0.2,0.4-0.3,0.4-0.2c0.1,0,0.2,0.1,0.3,0.4c0,0.1,0.1,0.3,0.2,0.5
					c0.1,0.2,0.2,0.3,0.4,0.2c0.2-0.1,0.2-0.2,0.2-0.4c-0.1-0.3-0.1-0.5-0.1-0.6c0-0.2,0-0.4,0.1-0.4c0-0.1,0.2,0,0.4,0
					c0.1,0,0.2,0.1,0.4,0.2c0.1,0,0.2,0,0.3-0.2c0-0.1,0-0.2-0.1-0.3c-0.2-0.1-0.3-0.2-0.3-0.2l-0.2-0.2c-0.2-0.1-0.3-0.2-0.3-0.3
					c0-0.1,0.1-0.2,0.3-0.4c0.4-0.3,0.8-0.6,1.2-1c0.6-0.6,0.9-1.2,0.8-1.7c0-0.5-0.4-1.1-1.1-1.6c-0.3-0.2-0.4-0.4-0.4-0.5
					c0-0.1,0.2-0.2,0.5-0.3c3.1-1.5,5.4-3.7,6.8-6.6c0.2-0.4,0.3-0.6,0.4-0.6c0.1,0,0.3,0.1,0.6,0.4c0.2,0.2,0.5,0.4,0.8,0.8
					c0.3,0.3,0.7,0.5,0.9,0.7c0.6,0.4,1.2,0.4,1.7,0c0.5-0.4,0.9-0.8,1.2-1.2c0.2-0.2,0.4-0.3,0.5-0.3c0.1,0,0.3,0,0.4,0.2
					c0.1,0.1,0.2,0.2,0.3,0.2c0.1,0.1,0.2,0.1,0.3,0c0.1-0.1,0.1-0.2,0.1-0.4c0,0-0.1-0.1-0.2-0.3c-0.1-0.1-0.2-0.2-0.2-0.3
					c0-0.1,0.2-0.2,0.4-0.2c0.1,0,0.3-0.1,0.4-0.1c0.1,0,0.2-0.1,0.3-0.1c0.1,0,0.2-0.1,0.2-0.2c0-0.1-0.1-0.2-0.2-0.2
					c-0.2,0-0.3,0-0.3,0c-0.1,0-0.2,0-0.2,0c-0.1,0-0.2,0-0.2-0.1c-0.1-0.1-0.1-0.1,0-0.2c0.1-0.1,0.1-0.1,0.2-0.2s0.2-0.2,0.3-0.4
					c0.1-0.2,0.1-0.3-0.1-0.4c-0.1-0.1-0.2-0.1-0.4,0c-0.1,0.1-0.2,0.2-0.4,0.3h0c-0.2,0.3-0.4,0.4-0.6,0.4c-0.2,0-0.3-0.2-0.4-0.5
					c-0.1-0.2-0.2-0.3-0.3-0.2c-0.1,0-0.1,0-0.1,0.1c0,0.1,0,0.1,0,0.2c0.2,0.5,0.1,0.9-0.1,1.3c-0.1,0.2-0.4,0.6-0.9,1
					c-0.2,0.2-0.5,0.4-0.8,0.4c-0.2,0-0.5-0.2-0.7-0.4c-0.6-0.5-1.1-1.2-1.6-2c-0.2-0.3-0.3-0.6-0.2-0.8c0-0.2,0.2-0.4,0.6-0.5
					c0.1-0.1,0.4-0.2,0.6-0.4c0.3-0.1,0.5-0.3,0.6-0.4c1.4-1.6,2.1-3.5,2.1-5.6c0-0.9-0.3-1.5-0.8-1.8c-0.5-0.3-1.2-0.3-1.9,0.1
					c-1.1,0.5-1.9,1.1-2.5,1.9c-0.7,0.8-1.1,1.8-1.2,2.9c-0.1,0.7-0.3,1.2-0.7,1.5c-0.4,0.2-1,0.2-1.7,0c-0.1,0-0.4-0.1-0.8-0.3
					c-0.3-0.1-0.5-0.4-0.4-0.8c0.1-0.4,0.2-0.7,0.4-1.1c0.1-0.2,0.4-0.5,0.7-0.9c0.1-0.2,0.3-0.2,0.6-0.2c0.1,0,0.3,0,0.6,0
					c0,0,0.1,0,0.2,0c0.1,0,0.1-0.1,0.2-0.1c0-0.1,0-0.2-0.1-0.2c0,0-0.1-0.1-0.2-0.1c-0.3-0.1-0.4-0.2-0.4-0.4c0-0.1,0-0.3,0.2-0.5
					c0-0.1,0.1-0.2,0.2-0.4c0.1-0.2,0.1-0.3-0.1-0.4c-0.1-0.1-0.2-0.1-0.4,0.1c0,0-0.1,0.1-0.3,0.3c-0.1,0.2-0.2,0.2-0.3,0.2
					c0-0.1-0.1-0.2-0.2-0.5c0-0.2-0.1-0.4-0.3-0.4c-0.2,0-0.3,0.1-0.3,0.4c0,0.1,0,0.3,0,0.5c0,0.2-0.1,0.3-0.2,0.3
					c-0.1-0.1-0.2-0.1-0.3-0.1c-0.1-0.1-0.2-0.2-0.3-0.2c-0.1-0.1-0.2,0-0.3,0.1c-0.1,0.1-0.1,0.2-0.1,0.4c0.1,0.1,0.2,0.2,0.3,0.3
					c0,0.1,0.1,0.1,0.2,0.1c0.2,0.2,0.3,0.3,0.4,0.5c0,0.1-0.1,0.3-0.2,0.5c-0.2,0.3-0.5,0.7-0.9,1.2c-0.5,0.9-0.7,1.5-0.6,1.9
					c0.1,0.4,0.6,0.9,1.5,1.4c0.1,0,0.2,0,0.2,0.1c0.1,0,0.2,0.1,0.2,0.2s-0.1,0.2-0.2,0.2l-0.2,0.1c-1.1,0.4-2.1,0.9-2.8,1.4
					c-0.9,0.6-1.7,1.3-2.2,2.1l0.1-0.6c0.1-0.7,0-1.1-0.3-1.4s-0.8-0.4-1.5-0.3c-0.7,0.1-1.5,0.4-2.4,0.8c-0.3,0.1-0.5,0.2-0.6,0.1
					c-0.1-0.1-0.2-0.2-0.2-0.5c0-0.2,0-0.4,0-0.4c0-0.1-0.1-0.2-0.2-0.2s-0.2,0-0.2,0.1c0,0.1,0,0.2-0.1,0.4c0,0.2-0.1,0.2-0.1,0.2
					c-0.1,0-0.2,0-0.3-0.1c-0.2-0.2-0.3-0.4-0.4-0.4c-0.2-0.1-0.3-0.2-0.4-0.1c-0.2,0.1-0.2,0.3-0.1,0.5c0.1,0.1,0.2,0.3,0.4,0.5
					c0.1,0.2,0.1,0.3,0.1,0.4c0,0.1-0.2,0.2-0.4,0.2c-0.3,0-0.5,0-0.6,0.1c-0.2,0-0.3,0.1-0.3,0.4c0,0.2,0.2,0.3,0.3,0.3
					c0.1,0,0.3,0,0.6,0c0.3,0,0.5,0,0.6,0.1c0.1,0.1,0.1,0.3-0.1,0.6c-0.2,0.3-0.2,0.5,0,0.6c0.2,0.1,0.4,0,0.5-0.2
					c0.3-0.5,0.7-0.8,1.2-1c0.3-0.1,0.8-0.2,1.6-0.2c0.3,0,0.5,0,0.6,0.1c0.1,0.1,0.2,0.3,0.1,0.6c-0.3,1.4-0.4,2.2-0.4,2.3
					c-0.2,1-0.9,1.6-1.9,2c-0.5,0.2-1.1,0.3-1.7,0.4c-0.5,0.1-1.1,0.1-1.8,0.1c-3.5-0.1-6.8-1.2-9.8-3.3c-4.7-3.3-7.2-7.7-7.5-13.1
					c-0.1-1.8,0.1-3.5,0.6-5.1s1.2-3.2,2.2-4.6c2.1-3.1,4.7-5.3,7.6-6.7c3-1.4,6.3-1.9,10-1.5c2.8,0.3,5.2,1.1,7.4,2.4
					c2.1,1.4,4,3.2,5.6,5.6c0,0.1,0.1,0.2,0.2,0.3c0.1,0.1,0.2,0.1,0.3,0.1C143.4,10.3,143.4,10.2,143.4,10.1z"/>
			</g>
		</g>
	</g>
</g>
</svg>
