<?xml version="1.0" encoding="utf-8"?>
<!-- Generator: Adobe Illustrator 19.1.0, SVG Export Plug-In . SVG Version: 6.00 Build 0)  -->
<svg version="1.1" id="Layer_1" xmlns="http://www.w3.org/2000/svg" xmlns:xlink="http://www.w3.org/1999/xlink" x="0px" y="0px"
	 viewBox="0 0 180 180" style="enable-background:new 0 0 180 180;" xml:space="preserve">
<style type="text/css">
	.st0{fill:#0059BB;}
	.st1{fill-rule:evenodd;clip-rule:evenodd;fill:#0059BB;}
</style>
<g>
	<path class="st0" d="M31.9,87c-6.3,0.5-14.5,1.6-14.4,3.9c0.1,2.3,6,6.8,13.9,9.7C31.8,95.8,31.9,90.8,31.9,87z M8.7,63.1
		C6.6,63.1,5,62.2,5,60.9c0-0.9,2-3.8,3.3-4.3c0.9-0.3,5-1.9,11.9-2.1c2.6-0.1,6.9,0.2,10.6,0.8c21.4,3.2,43.8,19.5,44.2,33.9
		c0.3,9.8-8.2,19.1-24.8,19.5c-4.4,0.1-8.4-0.4-12.1-1.4c-0.1,2.4,0.1,3.7-3.3,3.8c-2.1,0.1-2.9-3.3-3.2-6.1
		c-10-4.4-16-11.7-16.1-14.5c-0.1-4.2,7.6-7.8,16.6-9.2c0.1-3.5,0.7-12.4,2.6-12.5c0.7,0,2.3,1.7,2.9,4.3c0.5,2.4,0.6,6.8,0.6,7.6
		l0.7,0c12.7-0.4,20.2,3.6,20.4,8.3c0.1,3.6-3.1,5.5-4.8,5.5c-1.7,0-3.7-0.9-3.7-1.4c0-1,3.6-1.2,3.6-2.8C54,87.9,44,86.8,37.8,86.8
		c0,2.1,0,4.6,0,6.3c0,1.6,0.2,5.9,0.2,9.4c2.8,0.6,5.7,0.9,8.5,0.8c6.7-0.2,21.9-2.6,21.6-14.1C67.7,73.2,36,58.5,19,59
		c-6.7,0.2-10.7,0.9-10.7,1.6c0,0.4,3.3,0.6,3.3,1.5C11.7,62.9,9.8,63,8.7,63.1z"/>
	<path class="st1" d="M79.8,80.6c1.1,0,2.7,2.6,2.7,4.2c0,1.6,0.4,10.2,0.6,12.7c0.1,2.5,0,4.8-0.1,5.9c-0.2,1.1-0.6,1.6-2.4,1.7
		c-1.9,0.1-2.7-1.1-2.9-2.7c-0.2-1.7-0.3-6.3-0.2-8.7c0.1-2.3,0.2-6.8,0.5-9.7C78.1,81.2,78.9,80.6,79.8,80.6z"/>
	<path class="st1" d="M90.6,61.4c-0.3-0.8-1.4-2.3-5.1-2.2c-8.1,0.2-14.4,6.3-14.2,11c0,1.5,0.8,2.9,1.9,4c-0.3,0.8-0.3,1.3-0.3,1.6
		c0,0.8,1.3,3,2.2,3c0.8,0,1.4-0.8,2.1-2c1.3,0.5,2.6,0.8,3.7,0.7c7.6-0.2,14.6-7.4,14.4-12C95.3,63.3,93.9,61.3,90.6,61.4z
		 M79.1,72.7c0.9-1.3,5.8-7.9,10.8-8c1.5,0,1.9,0.9,1.9,1.9c0,1.6-2.8,6.2-9.2,6.3C81.2,73,80,72.9,79.1,72.7z M75.1,70.6
		c-0.1-0.2-0.2-0.5-0.2-1c0-1,1.8-5.1,6.3-5.4c-1.2,0.8-2.3,1.8-3.5,3.1C76.6,68.5,75.8,69.6,75.1,70.6z"/>
	<path class="st1" d="M99.6,80.1c4.5-0.1,10.1,0.4,10.1,1.9c0,0.8-0.4,2.6-2.8,2.8c-2.8,0.3-17,0.9-16.9,2.6c0,0.9,4.3,1.1,8.2,1.4
		c4,0.2,10.5,0.4,10.7,6.9c0.2,5.1-1.8,6.2-2.7,6.6c-1.1,0.5-4.8,1.9-7.7,2c-8.6,0.3-12.2-4.7-12.2-7.2c-0.1-2.2,2.2-4.2,6.1-4.3
		c3.9-0.1,9.9,1.3,9.9,2.9c0,1.3-2.6,2-3.8,2c-5.3,0.2-5-2-8.1-1.9c-1.7,0.1-4.2,3.7,4.5,3.5c7.7-0.2,10.1-2.8,10-4.1
		c-0.1-1.8-5.6-2.7-8.8-2.9c-3.2-0.2-8-0.1-9.7-1.2c-1.6-1-1.4-3.4-0.8-5.3C86.8,81.7,95.1,80.3,99.6,80.1z"/>
	<path class="st1" d="M114.8,81.8c3-0.1,9.4,13.6,10.4,13.6c1.1,0,0.3-3.2-0.4-6.7c-1.5-7.9-3.9-12-1.7-12.1c1.7,0,7.1,5.2,7.4,15.3
		c0.1,4.7-0.5,10.9-4.8,11c-4,0.1-8.7-12.7-9.7-12.6c-0.6,0-0.6,7.9-0.8,10.3c-0.2,2.4-1,3.7-2.3,3.7c-2,0.1-2.9-1.9-3-5.7
		C109.9,94.9,111.1,81.9,114.8,81.8z"/>
	<path class="st0" d="M145.5,89.2c1.4,0,2.7-0.3,2.6,1.6c-0.1,1.9-0.2,2.6-1.7,2.6l-7.6,0.2c-0.3,0.8-0.9,3-1.2,4
		c-0.4,1.2,0.8,0.9,2.3,0.5c1.5-0.4,5.6-1.2,7.2-1.2c1.7,0,2.9,2.6,2,3.5c-1,0.9-6.1,5.3-11.5,5.4c-2.3,0.1-5.5-2-5.6-5.6
		c-0.1-1.9,0.7-4.5,1.5-6.5c-0.2-0.1-0.3-0.4-0.4-1c-0.2-1.3-0.8-2.7,1.3-3c0.2,0,0.4,0,0.6-0.1l1.8-3.7c-0.7-0.1-1.4-0.3-1.8-0.5
		c-1.3-0.6-2.3-2.2-2.4-3c0-1.6,11.6-2.5,14.3-2.6c2.9-0.1,3.7,0.5,4.6,1.8c0.9,1.3,1.3,2.3,1.3,2.6c0,0.4-0.3,1.3-3.8,1.4
		c-1.8,0.1-4.7,0.4-7.5,0.5l-1.2,3.2C143,89.3,145.5,89.2,145.5,89.2z"/>
	<path class="st1" d="M153.4,100.2c-3.1,6.2-5.2,12.7-5.1,17.6c0.2,5.6,3.6,7.6,4.6,7.6c1,0,1.1-1.7,1.3-2.9
		c1.1-6.9,2.9-13.1,4.9-18.2c0.8,0.2,1.6,0.3,2.4,0.3c6.3-0.2,13.7-7.8,13.5-15.8c-0.1-4.3-1.8-7.3-4.5-7.2
		c-4,0.1-9.7,6.2-14.4,13.7c-0.4-3.1,2-7.8,4.1-11.1c1.5-2.3,1.2-5.1,0.6-5.1c-0.8,0-9,7-8.8,16.5C152.2,97.4,152.6,99,153.4,100.2z
		 M161.9,98.3c3.8-7.5,7.8-11.7,9.1-11.8C173.5,86.5,171.4,97.3,161.9,98.3z"/>
</g>
</svg>
