<?xml version="1.0" encoding="utf-8"?>
<!-- Generator: Adobe Illustrator 19.1.0, SVG Export Plug-In . SVG Version: 6.00 Build 0)  -->
<svg version="1.1" id="Layer_1" xmlns="http://www.w3.org/2000/svg" xmlns:xlink="http://www.w3.org/1999/xlink" x="0px" y="0px"
	 viewBox="0 0 180 180" style="enable-background:new 0 0 180 180;" xml:space="preserve">
<style type="text/css">
	.st0{stroke:#FFFFFF;stroke-miterlimit:10;}
</style>
<g>
	<path class="st0" d="M67,25.2c3.6,3.4-0.6,7.7,0,12.2c0.6,4.1,7.2,7.7,10,10.9c4.3,5,6.9,10.8,9.1,16.9c2.6,0,5.2,0,7.8,0
		c2.9-6.2,4.3-11,9.1-16.6c2.8-3.2,9.7-8.3,10.3-10.9c0.7-2.8-1.9-5.8-1.6-8.7c0.2-2.2,1-3.7,3-4.5c4.9-2.1,9.5,1.1,12.2,3.7
		c3.1,3,7.4,12.3,3.8,16.2c-2.2,2.3-7.8-0.2-11.6,0.9c-7.6,2.2-13.4,12.9-16.6,20.3c14.3,2.5,31,0.6,34,13.7
		c0.9,5.6-2,15.8-3.4,22.2c-1.4,6.4-2.3,13.1-4.1,18.1c-4.3,12.4-15.1,12.3-28.4,11.9c-4.1,22.6,23.1,7.3,21.6,25
		c-31.3,0-32,0-64.7,0c-0.9-13.7,16-7.8,20.6-14.7c1.5-2.3,1.5-6.6,0.6-10.6c-14.3,0.9-23.2,0.1-27.5-10.3c-2.4-6-2.9-13.5-4.4-20.3
		c-1.4-6.3-4.4-14.4-3.7-20.9c1.4-14.1,26.1-12.6,34-13.7c-1-4-2.4-7.3-4.7-10.6c-2.6-3.7-8.1-9.7-11.9-10.3
		c-4.4-0.8-9.4,2-11.6-0.9c-2.2-3.1-1-9,1.6-12.8C54.1,26.2,62.4,20.9,67,25.2z M86.7,131.1c-0.3,6.6,0.5,14.7,3.4,19.1
		c2.2-4.9,3.9-12,2.8-19.1C90.8,130.9,89.2,130.9,86.7,131.1z"/>
</g>
</svg>
