<?xml version="1.0" encoding="utf-8"?>
<!-- Generator: Adobe Illustrator 19.1.0, SVG Export Plug-In . SVG Version: 6.00 Build 0)  -->
<svg version="1.1" id="Layer_1" xmlns="http://www.w3.org/2000/svg" xmlns:xlink="http://www.w3.org/1999/xlink" x="0px" y="0px"
	 viewBox="0 180 180 180" style="enable-background:new 0 180 180 180;" xml:space="preserve">
<style type="text/css">
	.st0{fill:#B33D1F;}
	.st1{fill:#87746A;}
</style>
<g transform="matrix( 1.2799224853515625, 0, 0, 1.2799224853515625, 28.25,15.3) ">
	<g transform="matrix( 1, 0, 0, 1, 0,0) ">
		<g>
			<g id="logo_ee_0_Layer0_0_FILL">
				<path class="st0" d="M94.9,156.4c-0.2-0.4-0.3-0.8-0.4-1.2c-0.5-1.3-1.2-2.5-2.1-3.7c-1.1-1.4-2.3-2.7-3.8-3.8s-3-1.9-4.8-2.4
					c-1.8-0.6-3.6-0.9-5.5-0.9s-3.7,0.3-5.5,0.9c-1.7,0.6-3.3,1.4-4.8,2.4c-1.5,1.1-2.7,2.3-3.8,3.8c-1.1,1.5-1.9,3.1-2.5,4.8
					s-0.9,3.6-0.9,5.5s0.3,3.7,0.9,5.4c0.6,1.7,1.4,3.3,2.5,4.8c1.1,1.4,2.3,2.7,3.8,3.8c1.4,1.1,3,1.9,4.8,2.5
					c1.7,0.6,3.6,0.9,5.5,0.9s3.8-0.3,5.5-0.9c1.8-0.6,3.4-1.4,4.8-2.4c0.4-0.3,0.9-0.7,1.3-1.1c0.9-0.8,1.7-1.6,2.5-2.6
					c1-1.3,1.8-2.8,2.4-4.3h-8.7c-0.5,0.8-1,1.5-1.7,2.1c-0.8,0.7-1.7,1.3-2.8,1.7c-1,0.4-2.2,0.6-3.3,0.6c-1.2,0-2.3-0.2-3.3-0.6
					c-1.1-0.4-2-1-2.8-1.7s-1.5-1.6-2-2.6s-0.7-2-0.8-3.2h26.2l0.1-1c0-0.5,0-0.9,0-1.3C95.8,160,95.5,158.1,94.9,156.4 M84.3,153.4
					c0.8,0.7,1.5,1.6,2,2.6s0.7,2,0.8,3.2H69.4c0.1-1.1,0.3-2.2,0.8-3.2s1.1-1.9,2-2.6c0.8-0.7,1.7-1.3,2.8-1.8
					c1-0.4,2.1-0.6,3.3-0.6s2.3,0.2,3.3,0.6C82.6,152.1,83.5,152.7,84.3,153.4z"/>
				<path class="st1" d="M87.3,191.3c-1-2.5-2.2-4.8-3.7-7c-1.7,0.4-3.5,0.6-5.3,0.6c-2.5,0-5-0.4-7.2-1.2c-2.2-0.8-4.4-1.8-6.3-3.2
					c-1.9-1.4-3.6-3.1-5-5s-2.5-4-3.2-6.3c-0.5-1.5-0.9-3-1-4.6c-3.1-0.7-6.4-1-9.8-1c-5,0-9.7,0.8-14.2,2.2
					c-4.5,1.5-8.6,3.7-12.3,6.4c-3.7,2.8-7,6-9.8,9.8c-2.7,3.7-4.9,7.8-6.4,12.3c-1.5,4.5-2.3,9.2-2.3,14.2s0.8,9.7,2.3,14.2
					s3.7,8.6,6.4,12.3c2.8,3.8,6,7,9.8,9.8s7.8,4.9,12.3,6.4s9.2,2.3,14.2,2.3s9.7-0.8,14.1-2.3c4.5-1.5,8.6-3.6,12.3-6.3
					c1.2-0.9,2.4-1.8,3.5-2.8c2.3-2.1,4.4-4.4,6.2-6.9c2.6-3.4,4.6-7.2,6.1-11.2H65.5c-1.2,2-2.6,3.9-4.3,5.5
					c-2.1,1.9-4.5,3.4-7.2,4.5s-5.5,1.6-8.6,1.6c-3.1,0-5.9-0.5-8.6-1.5c-2.7-1.1-5.1-2.6-7.1-4.5c-2.1-1.9-3.8-4.1-5-6.7
					c-1.2-2.5-1.9-5.2-2.1-8.1h68l0.1-2.6c0.1-1.2,0.1-2.3,0.1-3.5c0-5-0.8-9.8-2.2-14.2C88.1,193.2,87.7,192.3,87.3,191.3
					 M54,182.2c2.7,1.1,5.1,2.5,7.2,4.5c2,1.9,3.7,4.1,5,6.7c1.2,2.5,2,5.2,2.2,8.1H22.5c0.2-2.9,0.9-5.6,2.1-8.1
					c1.2-2.6,2.9-4.8,5-6.7c2-1.9,4.4-3.4,7.1-4.5c2.6-1,5.5-1.5,8.6-1.5C48.4,180.6,51.3,181.1,54,182.2z"/>
			</g>
		</g>
	</g>
</g>
</svg>
