<?xml version="1.0" encoding="utf-8"?>
<!-- Generator: Adobe Illustrator 19.1.0, SVG Export Plug-In . SVG Version: 6.00 Build 0)  -->
<svg version="1.1" id="Layer_1" xmlns="http://www.w3.org/2000/svg" xmlns:xlink="http://www.w3.org/1999/xlink" x="0px" y="0px"
	 viewBox="0 180 180 180" style="enable-background:new 0 180 180 180;" xml:space="preserve">
<style type="text/css">
	.st0{fill:#FF3001;}
	.st1{fill:#FFFFFF;}
</style>
<g>
	<g id="logo" transform="matrix( 2.217529296875, 0, 0, 2.217529296875, 11,25.15) ">
		<g transform="matrix( 1, 0, 0, 1, 0,0) ">
			<g>
				<g id="logo_0_Layer0_0_MEMBER_0_FILL">
					<path class="st0" d="M56.3,112.2c10-5.2,15-10.6,15-16.3c0-5.8-2.8-9.8-8.5-11.9c-5-1.9-14.1-2.9-27.2-2.9
						c-13.5,0-22.7,1-27.6,2.9c-5.4,2.1-8,6-8,11.9c0,5.7,4.9,11.2,14.7,16.3c3.8,2,7.7,3.6,11.9,4.9c3.9,1.2,6.9,1.8,9.1,1.8
						c2.1,0,5-0.6,8.8-1.8C48.5,115.8,52.5,114.2,56.3,112.2z"/>
				</g>
			</g>
		</g>
		<g transform="matrix( 0.6378631591796875, 0, 0, 0.6378631591796875, 0,0) ">
			<g>
				<g id="logo_0_Layer0_0_MEMBER_1_FILL">
					<path class="st1" d="M24,147c0.2-0.2,0.7-0.3,1.5-0.3h3.2c0.7,0,1.1,0.1,1.3,0.3c0.3,0.3,0.3,1.1,0,2.5h4.1
						c0.4-2.6,0.2-4.3-0.7-5.2c-0.5-0.6-1.7-0.9-3.4-0.9h-4.8c-1,0-1.8,0.1-2.3,0.2c-0.7,0.2-1.3,0.6-1.9,1.1
						c-1.2,1.3-2.3,3.8-3.2,7.5c-1.1,4.6-1,7.6,0.2,8.8c0.6,0.6,1.8,1,3.4,1H26c1,0,1.8-0.1,2.3-0.2c0.7-0.2,1.3-0.6,1.8-1.2
						c1.1-1.1,2.1-3.3,3-6.6l0.5-2h-8.2l-0.8,3.1h4c-0.5,1.8-0.9,2.9-1.2,3.2c-0.2,0.2-0.7,0.3-1.5,0.3h-3.2c-0.7,0-1.1-0.1-1.3-0.2
						c-0.4-0.5-0.2-2.3,0.7-5.6C22.8,149.5,23.5,147.6,24,147z"/>
				</g>
			</g>
		</g>
		<g transform="matrix( 0.6378631591796875, 0, 0, 0.6378631591796875, 0,0) ">
			<g>
				<g id="logo_0_Layer0_0_MEMBER_2_FILL">
					<path class="st1" d="M48.8,143.5c-0.2-0.2-0.7-0.3-1.4-0.3h-3c-0.5,0-0.8,0.1-1,0.2c-0.2,0.1-0.5,0.5-0.8,1l-10.1,17.5h4.6
						l2.5-4.7h6.3l0.2,4.7h4.3l-1.4-17C49.1,144.2,49,143.7,48.8,143.5 M45.1,147.1h0.3l0.4,7h-4.5L45.1,147.1z"/>
				</g>
			</g>
		</g>
		<g transform="matrix( 0.6378631591796875, 0, 0, 0.6378631591796875, 0,0) ">
			<g>
				<g id="logo_0_Layer0_0_MEMBER_3_FILL">
					<path class="st1" d="M71.8,148.3h0.3l-3.3,13.5H73l4.6-18.6h-6c-0.4,0-0.7,0.1-0.9,0.2c-0.2,0.1-0.4,0.4-0.6,0.8l-5.8,11.1H64
						l-0.5-10.8c0-0.5-0.1-0.8-0.2-1c-0.2-0.2-0.5-0.3-1-0.3H57l-4.7,18.6h4.1l3.4-13.7h0.3l0.7,12.4c0,0.5,0.1,0.9,0.2,1
						c0.2,0.2,0.5,0.2,1,0.2h1.5c0.3,0,0.6-0.1,0.8-0.2c0.2-0.1,0.3-0.4,0.5-0.8L71.8,148.3z"/>
				</g>
			</g>
		</g>
		<g transform="matrix( 0.6378631591796875, 0, 0, 0.6378631591796875, 0,0) ">
			<g>
				<g id="logo_0_Layer0_0_MEMBER_4_FILL">
					<path class="st1" d="M95,143.3H81.3l-4.7,18.6h13.8l0.8-3.4h-9.3L83,154h7.2l0.9-3.2h-7.3l1-4h9.3L95,143.3z"/>
				</g>
			</g>
		</g>
	</g>
	<g transform="matrix( 1, 0, 0, 1, 23.1,117.05) ">
		<g transform="matrix( 1, 0, 0, 1, 0,0) ">
			<g>
				<g id="logo_game_golf_txt_0_Layer0_0_FILL">
					<path class="st0" d="M24.6,187.1c1.3,0.1,1.9,1.1,1.8,3.1c-0.1,0.8-0.2,1.6-0.3,2.4h8.2c0.2-1.8,0.3-3.7,0.3-5.5v-0.8
						c-0.2-1.9-0.8-3.3-1.7-4.3c-0.9-1.1-2.2-1.7-3.9-2H13.6c-1.9,0.1-3.5,0.8-5,2.1c-1.1,1-2.4,2.7-3.7,4.9
						c-3.7,8.3-5.4,16.2-5,23.8c0,2.1,0.5,3.7,1.4,4.8c1,1.1,2.6,1.9,5,2.2h14.6c2.2-0.3,4.1-1.3,5.5-3c0.8-0.9,1.7-2.2,2.7-4
						c2.1-4.6,3.6-9.1,4.5-13.5H17l-1.7,6.4h8.1c-0.5,1.5-1,3-1.6,4.5c-0.7,1.8-1.8,2.6-3.2,2.6h-8.4c-0.7,0-1.2-0.3-1.5-0.8
						c-0.4-0.7-0.4-1.6-0.2-2.8c0.8-5.8,1.9-10.8,3.3-15c0.6-2,1.2-3.3,1.6-3.9c0.5-0.8,1.2-1.3,2.2-1.3h9 M69.9,186.3
						c-0.8-3.8-2.7-5.8-5.7-6.2H49.7c-0.3,0-0.6,0-1,0c-1.9,0.1-3.5,0.8-5,2.1c-1.2,1-2.4,2.7-3.8,4.9c-3.7,8.3-5.3,16.2-5.1,23.8
						c0.1,2.1,0.6,3.7,1.5,4.8c1,1.1,2.6,1.9,4.9,2.2h15.2c2.2-0.3,4-1.3,5.5-3c0.8-0.9,1.7-2.2,2.7-4c3.8-8.4,5.6-16.3,5.3-23.8
						C69.9,186.8,69.9,186.6,69.9,186.3 M48.6,188.4c0.5-0.8,1.3-1.3,2.2-1.3h8.7c1.2,0.1,1.8,1.1,1.8,3.1
						c-0.8,6.2-2.3,12.2-4.6,18.2c-0.7,1.8-1.8,2.6-3.1,2.6h-8.2c-0.6,0-1.1-0.3-1.4-0.8c-0.4-0.7-0.5-1.6-0.3-2.8
						c0.9-5.8,2-10.8,3.3-15C47.7,190.3,48.2,189,48.6,188.4 M94.3,217.9l1.8-7.1H78.5l7.8-30.8h-9l-9.5,37.8L94.3,217.9 M123.2,203
						l1.6-6.4h-13l2.5-9.7h17.6l1.8-6.8h-26.8l-9.5,37.8h9.1l3.8-14.9H123.2z"/>
				</g>
			</g>
		</g>
	</g>
</g>
</svg>
